<?xml version="1.0" encoding="UTF-8" standalone="no"?>
<svg
   xmlns:dc="http://purl.org/dc/elements/1.1/"
   xmlns:cc="http://creativecommons.org/ns#"
   xmlns:rdf="http://www.w3.org/1999/02/22-rdf-syntax-ns#"
   xmlns:svg="http://www.w3.org/2000/svg"
   xmlns="http://www.w3.org/2000/svg"
   xmlns:sodipodi="http://sodipodi.sourceforge.net/DTD/sodipodi-0.dtd"
   xmlns:inkscape="http://www.inkscape.org/namespaces/inkscape"
   inkscape:version="1.0 (4035a4fb49, 2020-05-01)"
   sodipodi:docname="a.svg"
   id="svg971"
   version="1.1"
   viewBox="0 0 50.553394 46.566669"
   height="46.566669mm"
   width="50.553394mm">
  <defs
     id="defs965" />
  <sodipodi:namedview
     inkscape:window-maximized="0"
     inkscape:window-y="0"
     inkscape:window-x="152"
     inkscape:window-height="856"
     inkscape:window-width="1274"
     fit-margin-bottom="0"
     fit-margin-right="0"
     fit-margin-left="0"
     fit-margin-top="0"
     showgrid="false"
     inkscape:document-rotation="0"
     inkscape:current-layer="layer1"
     inkscape:document-units="mm"
     inkscape:cy="365.14287"
     inkscape:cx="98.391116"
     inkscape:zoom="0.35"
     inkscape:pageshadow="2"
     inkscape:pageopacity="0.0"
     borderopacity="1.0"
     bordercolor="#666666"
     pagecolor="#ffffff"
     id="base" />
  <metadata
     id="metadata968">
    <rdf:RDF>
      <cc:Work
         rdf:about="">
        <dc:format>image/svg+xml</dc:format>
        <dc:type
           rdf:resource="http://purl.org/dc/dcmitype/StillImage" />
        <dc:title></dc:title>
      </cc:Work>
    </rdf:RDF>
  </metadata>
  <g
     transform="translate(-79.800684,-51.55595)"
     id="layer1"
     inkscape:groupmode="layer"
     inkscape:label="Layer 1">
    <path
       d="m 93.98235,60.093172 c -1.763889,4.727222 -5.679721,15.134166 -8.678333,23.177498 -3.033888,8.008057 -5.503333,14.64028 -5.503333,14.710834 0,0.07056 3.316111,0.141113 7.337778,0.141113 h 7.373055 L 94.93485,96.60567 c 0.246945,-0.811387 0.776111,-2.54 1.164167,-3.880553 l 0.705555,-2.363613 8.149168,0.07056 8.14916,0.105834 1.19945,3.81 1.16417,3.774723 7.47888,-0.07056 c 4.72723,-0.07056 7.44362,-0.246943 7.40834,-0.45861 -0.0706,-0.493891 -16.96861,-45.296667 -17.21556,-45.684723 -0.14111,-0.211667 -3.42194,-0.352778 -8.07861,-0.352778 h -7.866942 z m 13.68778,12.241388 2.36361,7.79639 h -5.04472 -5.044726 l 0.317496,-0.98778 c 0.17639,-0.529166 1.19945,-3.880554 2.29306,-7.478887 2.43417,-8.078611 2.25778,-7.549445 2.50472,-7.3025 0.10584,0.105833 1.27,3.704166 2.61056,7.972777 z"
       id="path78"
       style="fill:#000000;stroke:none;stroke-width:0.0352777" />
  </g>
</svg>
