<?xml version="1.0" encoding="UTF-8" standalone="no"?>
<svg
   xmlns:dc="http://purl.org/dc/elements/1.1/"
   xmlns:cc="http://creativecommons.org/ns#"
   xmlns:rdf="http://www.w3.org/1999/02/22-rdf-syntax-ns#"
   xmlns:svg="http://www.w3.org/2000/svg"
   xmlns="http://www.w3.org/2000/svg"
   xmlns:sodipodi="http://sodipodi.sourceforge.net/DTD/sodipodi-0.dtd"
   xmlns:inkscape="http://www.inkscape.org/namespaces/inkscape"
   width="50.553394mm"
   height="46.566669mm"
   viewBox="0 0 50.553394 46.566669"
   version="1.1"
   id="svg971"
   sodipodi:docname="c.svg"
   inkscape:version="1.0 (4035a4fb49, 2020-05-01)">
  <defs
     id="defs965" />
  <sodipodi:namedview
     id="base"
     pagecolor="#ffffff"
     bordercolor="#666666"
     borderopacity="1.0"
     inkscape:pageopacity="0.0"
     inkscape:pageshadow="2"
     inkscape:zoom="2.8"
     inkscape:cx="155.91899"
     inkscape:cy="119.19924"
     inkscape:document-units="mm"
     inkscape:current-layer="layer1"
     inkscape:document-rotation="0"
     showgrid="false"
     fit-margin-top="0"
     fit-margin-left="0"
     fit-margin-right="0"
     fit-margin-bottom="0"
     inkscape:window-width="1274"
     inkscape:window-height="856"
     inkscape:window-x="152"
     inkscape:window-y="0"
     inkscape:window-maximized="0" />
  <metadata
     id="metadata968">
    <rdf:RDF>
      <cc:Work
         rdf:about="">
        <dc:format>image/svg+xml</dc:format>
        <dc:type
           rdf:resource="http://purl.org/dc/dcmitype/StillImage" />
        <dc:title></dc:title>
      </cc:Work>
    </rdf:RDF>
  </metadata>
  <g
     inkscape:label="Layer 1"
     inkscape:groupmode="layer"
     id="layer1"
     transform="translate(-79.800684,-51.55595)">
    <path
       d="m 102.30791,51.900697 c -7.535157,0.714531 -13.399628,4.355243 -16.536437,10.207601 -3.000427,5.614181 -3.545959,15.855806 -1.227447,22.286595 2.488989,6.805069 7.364683,11.296414 14.047451,12.963654 3.000423,0.714533 11.694843,0.816609 14.456603,0.136101 5.31893,-1.292961 9.51271,-4.695497 11.89941,-9.62917 1.19335,-2.483849 2.07985,-5.376002 1.67069,-5.376002 -0.10228,0 -2.65946,-0.748559 -5.76218,-1.701268 -3.06861,-0.918684 -5.72809,-1.701267 -5.93265,-1.701267 -0.17048,0 -0.61373,0.918684 -0.92059,2.007495 -1.19336,4.014989 -3.78464,6.19261 -7.63745,6.430789 -5.31894,0.340253 -8.148886,-2.381772 -9.035376,-8.642436 -0.443245,-3.164357 -0.204575,-8.09803 0.511437,-10.51383 1.772979,-5.920408 9.103569,-8.200106 13.604199,-4.219141 0.8524,0.714531 1.77299,1.939444 2.07985,2.688002 0.30686,0.782582 0.7842,1.361013 1.09106,1.361013 0.71601,0 11.49027,-2.347748 11.66075,-2.551901 0.34095,-0.340252 -1.80708,-4.729522 -3.17091,-6.600915 -2.62537,-3.538635 -5.86447,-5.614181 -10.3992,-6.634941 -2.89814,-0.612456 -7.02373,-0.850633 -10.39921,-0.510379 z"
       id="path74"
       style="fill:#000000;stroke:none;stroke-width:0.0340605" />
  </g>
</svg>
