<?xml version="1.0" encoding="UTF-8" standalone="no"?>
<svg
   xmlns:dc="http://purl.org/dc/elements/1.1/"
   xmlns:cc="http://creativecommons.org/ns#"
   xmlns:rdf="http://www.w3.org/1999/02/22-rdf-syntax-ns#"
   xmlns:svg="http://www.w3.org/2000/svg"
   xmlns="http://www.w3.org/2000/svg"
   xmlns:sodipodi="http://sodipodi.sourceforge.net/DTD/sodipodi-0.dtd"
   xmlns:inkscape="http://www.inkscape.org/namespaces/inkscape"
   width="50.553394mm"
   height="46.566669mm"
   viewBox="0 0 50.553394 46.566669"
   version="1.1"
   id="svg971"
   sodipodi:docname="d.svg"
   inkscape:version="1.0 (4035a4fb49, 2020-05-01)">
  <defs
     id="defs965" />
  <sodipodi:namedview
     id="base"
     pagecolor="#ffffff"
     bordercolor="#666666"
     borderopacity="1.0"
     inkscape:pageopacity="0.0"
     inkscape:pageshadow="2"
     inkscape:zoom="0.35"
     inkscape:cx="98.391116"
     inkscape:cy="365.14287"
     inkscape:document-units="mm"
     inkscape:current-layer="layer1"
     inkscape:document-rotation="0"
     showgrid="false"
     fit-margin-top="0"
     fit-margin-left="0"
     fit-margin-right="0"
     fit-margin-bottom="0"
     inkscape:window-width="1274"
     inkscape:window-height="856"
     inkscape:window-x="152"
     inkscape:window-y="0"
     inkscape:window-maximized="0" />
  <metadata
     id="metadata968">
    <rdf:RDF>
      <cc:Work
         rdf:about="">
        <dc:format>image/svg+xml</dc:format>
        <dc:type
           rdf:resource="http://purl.org/dc/dcmitype/StillImage" />
        <dc:title />
      </cc:Work>
    </rdf:RDF>
  </metadata>
  <g
     inkscape:label="Layer 1"
     inkscape:groupmode="layer"
     id="layer1"
     transform="translate(-79.800684,-51.55595)">
    <path
       style="fill:#ffffff;stroke:none;stroke-width:0.0352777"
       id="path82"
       d="m 84.406954,74.733449 0.105833,23.212774 h 12.347224 c 13.405549,0 15.769159,-0.24694 19.826099,-2.116663 3.81,-1.72861 7.9375,-6.632223 9.27806,-11.041943 1.48167,-4.833057 1.5875,-13.546668 0.17639,-18.944167 C 124.8,60.587061 120.99,55.577617 116.79195,53.566783 113.12306,51.767617 111.07695,51.55595 97.106951,51.55595 H 84.336398 Z m 23.706666,-11.57111 c 2.18722,1.093611 3.52777,3.139722 4.12749,6.349999 0.56445,3.175 0.24695,11.394722 -0.49388,13.088056 -0.77612,1.72861 -1.905,3.104443 -3.13973,3.739443 -1.23472,0.635 -6.94972,1.27 -8.643049,0.98778 L 98.800281,87.11595 V 74.592338 62.068727 l 3.809999,0.141112 c 3.06917,0.105833 4.09222,0.282222 5.50334,0.9525 z" />
  </g>
</svg>
