<?xml version="1.0" encoding="UTF-8" standalone="no"?>
<svg
   xmlns:dc="http://purl.org/dc/elements/1.1/"
   xmlns:cc="http://creativecommons.org/ns#"
   xmlns:rdf="http://www.w3.org/1999/02/22-rdf-syntax-ns#"
   xmlns:svg="http://www.w3.org/2000/svg"
   xmlns="http://www.w3.org/2000/svg"
   xmlns:sodipodi="http://sodipodi.sourceforge.net/DTD/sodipodi-0.dtd"
   xmlns:inkscape="http://www.inkscape.org/namespaces/inkscape"
   inkscape:version="1.0 (4035a4fb49, 2020-05-01)"
   sodipodi:docname="g.svg"
   id="svg971"
   version="1.1"
   viewBox="0 0 50.553394 46.566669"
   height="46.566669mm"
   width="50.553394mm">
  <defs
     id="defs965" />
  <sodipodi:namedview
     inkscape:window-maximized="0"
     inkscape:window-y="0"
     inkscape:window-x="152"
     inkscape:window-height="856"
     inkscape:window-width="1274"
     fit-margin-bottom="0"
     fit-margin-right="0"
     fit-margin-left="0"
     fit-margin-top="0"
     showgrid="false"
     inkscape:document-rotation="0"
     inkscape:current-layer="layer1"
     inkscape:document-units="mm"
     inkscape:cy="137.49539"
     inkscape:cx="160.45994"
     inkscape:zoom="1.979899"
     inkscape:pageshadow="2"
     inkscape:pageopacity="0.0"
     borderopacity="1.0"
     bordercolor="#666666"
     pagecolor="#ffffff"
     id="base" />
  <metadata
     id="metadata968">
    <rdf:RDF>
      <cc:Work
         rdf:about="">
        <dc:format>image/svg+xml</dc:format>
        <dc:type
           rdf:resource="http://purl.org/dc/dcmitype/StillImage" />
        <dc:title></dc:title>
      </cc:Work>
    </rdf:RDF>
  </metadata>
  <g
     transform="translate(-79.800684,-51.55595)"
     id="layer1"
     inkscape:groupmode="layer"
     inkscape:label="Layer 1">
    <path
       d="m 102.09664,51.683759 c -9.890036,0.957464 -16.619341,6.462879 -19.100347,15.627172 -1.053578,3.898244 -1.053578,11.181804 0,14.909074 1.699319,6.052538 5.53978,11.147608 10.025978,13.336098 3.840462,1.880734 6.627347,2.393655 12.812879,2.427852 8.93841,0.03422 12.74489,-1.16263 21.34344,-6.668052 l 0.7477,-0.478724 -0.0679,-9.574639 -0.10196,-9.574633 -10.60375,-0.102586 -10.63774,-0.06838 v 4.787317 4.787318 h 4.58816 4.62215 l -0.10196,2.120096 -0.10195,2.154293 -2.20912,1.094244 c -5.5058,2.701414 -11.48741,2.120099 -14.47821,-1.402 -3.126741,-3.693073 -3.738496,-13.233512 -1.121544,-18.567951 1.597355,-3.351122 4.282284,-4.889902 8.428624,-4.889902 3.22871,0 5.43782,1.094244 6.69532,3.316926 0.5098,0.889073 0.95162,1.675561 0.98561,1.743952 0.0679,0.102585 13.15273,-2.291073 13.32266,-2.462049 0.2379,-0.239367 -1.49541,-4.240196 -2.54899,-5.744781 -2.27708,-3.351122 -5.43781,-5.368635 -9.82206,-6.223512 -2.92282,-0.581317 -9.34625,-0.854879 -12.67693,-0.547123 z"
       id="path76"
       style="fill:#ffffff;stroke:none;stroke-width:0.0340905" />
  </g>
</svg>
