<?xml version="1.0" encoding="UTF-8" standalone="no"?>
<svg
   xmlns:dc="http://purl.org/dc/elements/1.1/"
   xmlns:cc="http://creativecommons.org/ns#"
   xmlns:rdf="http://www.w3.org/1999/02/22-rdf-syntax-ns#"
   xmlns:svg="http://www.w3.org/2000/svg"
   xmlns="http://www.w3.org/2000/svg"
   xmlns:sodipodi="http://sodipodi.sourceforge.net/DTD/sodipodi-0.dtd"
   xmlns:inkscape="http://www.inkscape.org/namespaces/inkscape"
   width="50.553394mm"
   height="46.566669mm"
   viewBox="0 0 50.553394 46.566669"
   version="1.1"
   id="svg971"
   sodipodi:docname="j.svg"
   inkscape:version="1.0 (4035a4fb49, 2020-05-01)">
  <defs
     id="defs965" />
  <sodipodi:namedview
     id="base"
     pagecolor="#ffffff"
     bordercolor="#666666"
     borderopacity="1.0"
     inkscape:pageopacity="0.0"
     inkscape:pageshadow="2"
     inkscape:zoom="1.979899"
     inkscape:cx="160.45994"
     inkscape:cy="137.49539"
     inkscape:document-units="mm"
     inkscape:current-layer="layer1"
     inkscape:document-rotation="0"
     showgrid="false"
     fit-margin-top="0"
     fit-margin-left="0"
     fit-margin-right="0"
     fit-margin-bottom="0"
     inkscape:window-width="1274"
     inkscape:window-height="856"
     inkscape:window-x="152"
     inkscape:window-y="0"
     inkscape:window-maximized="0" />
  <metadata
     id="metadata968">
    <rdf:RDF>
      <cc:Work
         rdf:about="">
        <dc:format>image/svg+xml</dc:format>
        <dc:type
           rdf:resource="http://purl.org/dc/dcmitype/StillImage" />
        <dc:title></dc:title>
      </cc:Work>
    </rdf:RDF>
  </metadata>
  <g
     inkscape:label="Layer 1"
     inkscape:groupmode="layer"
     id="layer1"
     transform="translate(-79.800684,-51.55595)">
    <path
       d="m 108.47077,67.276121 c -0.0694,10.885872 -0.24258,16.137521 -0.55445,17.04178 -1.2475,3.895262 -6.30681,4.138715 -7.8662,0.417349 -0.277216,-0.660806 -0.485136,-1.738958 -0.485136,-2.46932 0,-2.364982 0.13861,-2.330201 -7.10383,-1.356386 -3.56925,0.486908 -6.54939,0.939037 -6.6187,1.008596 -0.24257,0.243453 0.62375,4.521287 1.24751,6.260245 2.56431,6.88627 7.9355,9.981611 17.361076,9.981611 3.77715,0 6.51474,-0.521686 9.14835,-1.704177 2.70292,-1.252049 5.78702,-4.103937 6.93057,-6.39936 1.8366,-3.790929 1.97521,-5.35599 2.14847,-22.606442 L 122.8517,51.55595 h -7.10383 -7.10384 z"
       id="path100"
       style="fill:#ffffff;stroke:none;stroke-width:0.0347159" />
  </g>
</svg>
