<?xml version="1.0" encoding="UTF-8" standalone="no"?>
<svg
   xmlns:dc="http://purl.org/dc/elements/1.1/"
   xmlns:cc="http://creativecommons.org/ns#"
   xmlns:rdf="http://www.w3.org/1999/02/22-rdf-syntax-ns#"
   xmlns:svg="http://www.w3.org/2000/svg"
   xmlns="http://www.w3.org/2000/svg"
   xmlns:sodipodi="http://sodipodi.sourceforge.net/DTD/sodipodi-0.dtd"
   xmlns:inkscape="http://www.inkscape.org/namespaces/inkscape"
   width="50.553394mm"
   height="46.566669mm"
   viewBox="0 0 50.553394 46.566669"
   version="1.1"
   id="svg971"
   sodipodi:docname="j.svg"
   inkscape:version="1.0 (4035a4fb49, 2020-05-01)">
  <defs
     id="defs965" />
  <sodipodi:namedview
     id="base"
     pagecolor="#ffffff"
     bordercolor="#666666"
     borderopacity="1.0"
     inkscape:pageopacity="0.0"
     inkscape:pageshadow="2"
     inkscape:zoom="1.979899"
     inkscape:cx="160.45994"
     inkscape:cy="137.49539"
     inkscape:document-units="mm"
     inkscape:current-layer="layer1"
     inkscape:document-rotation="0"
     showgrid="false"
     fit-margin-top="0"
     fit-margin-left="0"
     fit-margin-right="0"
     fit-margin-bottom="0"
     inkscape:window-width="1274"
     inkscape:window-height="856"
     inkscape:window-x="152"
     inkscape:window-y="0"
     inkscape:window-maximized="0" />
  <metadata
     id="metadata968">
    <rdf:RDF>
      <cc:Work
         rdf:about="">
        <dc:format>image/svg+xml</dc:format>
        <dc:type
           rdf:resource="http://purl.org/dc/dcmitype/StillImage" />
        <dc:title></dc:title>
      </cc:Work>
    </rdf:RDF>
  </metadata>
  <g
     inkscape:label="Layer 1"
     inkscape:groupmode="layer"
     id="layer1"
     transform="translate(-79.800684,-51.55595)">
    <path
       d="m 81.869708,74.877669 0.103542,22.856236 7.006373,0.103419 6.971857,0.06899 v -5.58478 L 95.986,86.70228 99.575472,82.910143 c 1.967308,-2.068437 3.658498,-3.723188 3.727528,-3.619765 0.10354,0.103421 2.27793,4.309245 4.90101,9.376917 l 4.72844,9.239019 h 8.59402 c 4.72844,0 8.59402,-0.06899 8.59402,-0.172371 0,-0.137895 -15.28976,-25.269409 -16.80839,-27.613639 -0.41417,-0.655005 0.0691,-1.241062 7.66214,-9.135599 4.45233,-4.61951 8.11083,-8.515068 8.11083,-8.687438 0,-0.137895 -4.1417,-0.206843 -9.21528,-0.172369 l -9.21528,0.103422 -7.28249,8.446119 -7.247963,8.44612 -0.103542,-8.549541 -0.06903,-8.515068 h -7.075401 -7.0754 z"
       id="path88"
       style="fill:#ffffff;stroke:none;stroke-width:0.034494" />
  </g>
</svg>
