<?xml version="1.0" encoding="UTF-8" standalone="no"?>
<svg
   xmlns:dc="http://purl.org/dc/elements/1.1/"
   xmlns:cc="http://creativecommons.org/ns#"
   xmlns:rdf="http://www.w3.org/1999/02/22-rdf-syntax-ns#"
   xmlns:svg="http://www.w3.org/2000/svg"
   xmlns="http://www.w3.org/2000/svg"
   xmlns:sodipodi="http://sodipodi.sourceforge.net/DTD/sodipodi-0.dtd"
   xmlns:inkscape="http://www.inkscape.org/namespaces/inkscape"
   width="50.553394mm"
   height="46.566669mm"
   viewBox="0 0 50.553394 46.566669"
   version="1.1"
   id="svg971"
   sodipodi:docname="m.svg"
   inkscape:version="1.0 (4035a4fb49, 2020-05-01)">
  <defs
     id="defs965" />
  <sodipodi:namedview
     id="base"
     pagecolor="#ffffff"
     bordercolor="#666666"
     borderopacity="1.0"
     inkscape:pageopacity="0.0"
     inkscape:pageshadow="2"
     inkscape:zoom="1.979899"
     inkscape:cx="160.45994"
     inkscape:cy="137.49539"
     inkscape:document-units="mm"
     inkscape:current-layer="layer1"
     inkscape:document-rotation="0"
     showgrid="false"
     fit-margin-top="0"
     fit-margin-left="0"
     fit-margin-right="0"
     fit-margin-bottom="0"
     inkscape:window-width="1274"
     inkscape:window-height="856"
     inkscape:window-x="152"
     inkscape:window-y="0"
     inkscape:window-maximized="0" />
  <metadata
     id="metadata968">
    <rdf:RDF>
      <cc:Work
         rdf:about="">
        <dc:format>image/svg+xml</dc:format>
        <dc:type
           rdf:resource="http://purl.org/dc/dcmitype/StillImage" />
        <dc:title></dc:title>
      </cc:Work>
    </rdf:RDF>
  </metadata>
  <g
     inkscape:label="Layer 1"
     inkscape:groupmode="layer"
     id="layer1"
     transform="translate(-79.800684,-51.55595)">
    <path
       d="m 80.600684,74.378171 v 22.022213 l 0.759645,0.166836 c 0.396336,0.100098 2.873438,0.133467 5.515682,0.100098 l 4.789067,-0.100098 0.165142,-15.982788 0.165131,-15.98279 3.963371,15.615753 c 2.146817,8.575318 4.128498,15.815957 4.392728,16.082891 0.36331,0.333672 1.48626,0.43377 5.11934,0.367032 l 4.68998,-0.100098 4.12851,-16.283091 4.12851,-16.283093 0.0991,16.182992 0.0661,16.182987 1.08992,0.200205 c 0.56149,0.100098 3.07162,0.166836 5.51569,0.100098 l 4.45878,-0.100098 V 74.545006 52.522791 l -8.81848,-0.100101 -8.78546,-0.06674 -0.52845,1.735083 c -0.26422,0.967643 -1.78351,6.940335 -3.36886,13.246697 -2.01471,7.907977 -2.97252,11.278042 -3.17069,10.844273 -0.13211,-0.333672 -1.61837,-5.972693 -3.26978,-12.479256 -1.6514,-6.506564 -3.13766,-12.178952 -3.302801,-12.579356 l -0.297283,-0.767439 h -8.752428 -8.752427 z"
       id="path94"
       style="fill:#ffffff;stroke:none;stroke-width:0.033197" />
  </g>
</svg>
