<?xml version="1.0" encoding="UTF-8" standalone="no"?>
<svg
   xmlns:dc="http://purl.org/dc/elements/1.1/"
   xmlns:cc="http://creativecommons.org/ns#"
   xmlns:rdf="http://www.w3.org/1999/02/22-rdf-syntax-ns#"
   xmlns:svg="http://www.w3.org/2000/svg"
   xmlns="http://www.w3.org/2000/svg"
   xmlns:sodipodi="http://sodipodi.sourceforge.net/DTD/sodipodi-0.dtd"
   xmlns:inkscape="http://www.inkscape.org/namespaces/inkscape"
   inkscape:version="1.0 (4035a4fb49, 2020-05-01)"
   sodipodi:docname="n.svg"
   id="svg971"
   version="1.1"
   viewBox="0 0 50.553394 46.566669"
   height="46.566669mm"
   width="50.553394mm">
  <defs
     id="defs965" />
  <sodipodi:namedview
     inkscape:window-maximized="0"
     inkscape:window-y="0"
     inkscape:window-x="152"
     inkscape:window-height="856"
     inkscape:window-width="1274"
     fit-margin-bottom="0"
     fit-margin-right="0"
     fit-margin-left="0"
     fit-margin-top="0"
     showgrid="false"
     inkscape:document-rotation="0"
     inkscape:current-layer="layer1"
     inkscape:document-units="mm"
     inkscape:cy="126.38371"
     inkscape:cx="163.74294"
     inkscape:zoom="1.979899"
     inkscape:pageshadow="2"
     inkscape:pageopacity="0.0"
     borderopacity="1.0"
     bordercolor="#666666"
     pagecolor="#ffffff"
     id="base" />
  <metadata
     id="metadata968">
    <rdf:RDF>
      <cc:Work
         rdf:about="">
        <dc:format>image/svg+xml</dc:format>
        <dc:type
           rdf:resource="http://purl.org/dc/dcmitype/StillImage" />
        <dc:title />
      </cc:Work>
    </rdf:RDF>
  </metadata>
  <g
     transform="translate(-79.800684,-51.55595)"
     id="layer1"
     inkscape:groupmode="layer"
     inkscape:label="Layer 1">
    <path
       style="fill:#ffffff;stroke:none;stroke-width:0.0343431"
       id="path96"
       d="m 83.243204,52.389996 c -0.13858,0.136175 -0.24252,10.247159 -0.24252,22.468855 v 22.230548 l 1.1433,0.204263 c 0.58897,0.10213 3.60312,0.170219 6.65191,0.10213 l 5.54326,-0.10213 0.17323,-12.051478 c 0.13858,-8.919454 0.27716,-11.915301 0.55432,-11.574863 0.20787,0.272349 3.949566,5.617213 8.280236,11.881257 4.36532,6.264044 8.07237,11.506778 8.28025,11.642952 0.20786,0.17022 3.25666,0.238305 6.79049,0.17022 l 6.40939,-0.06809 V 74.824807 52.355952 h -6.58262 -6.58261 l -0.17323,12.255739 -0.17323,12.221695 -8.48812,-12.221695 -8.488106,-12.255739 -6.44404,-0.102131 c -3.53383,-0.03405 -6.51333,0.03405 -6.65191,0.136175 z" />
  </g>
</svg>
