<?xml version="1.0" encoding="UTF-8" standalone="no"?>
<svg
   xmlns:dc="http://purl.org/dc/elements/1.1/"
   xmlns:cc="http://creativecommons.org/ns#"
   xmlns:rdf="http://www.w3.org/1999/02/22-rdf-syntax-ns#"
   xmlns:svg="http://www.w3.org/2000/svg"
   xmlns="http://www.w3.org/2000/svg"
   xmlns:sodipodi="http://sodipodi.sourceforge.net/DTD/sodipodi-0.dtd"
   xmlns:inkscape="http://www.inkscape.org/namespaces/inkscape"
   width="50.553394mm"
   height="46.566669mm"
   viewBox="0 0 50.553394 46.566669"
   version="1.1"
   id="svg971"
   sodipodi:docname="o.svg"
   inkscape:version="1.0 (4035a4fb49, 2020-05-01)">
  <defs
     id="defs965" />
  <sodipodi:namedview
     id="base"
     pagecolor="#ffffff"
     bordercolor="#666666"
     borderopacity="1.0"
     inkscape:pageopacity="0.0"
     inkscape:pageshadow="2"
     inkscape:zoom="1.979899"
     inkscape:cx="163.74294"
     inkscape:cy="126.38371"
     inkscape:document-units="mm"
     inkscape:current-layer="layer1"
     inkscape:document-rotation="0"
     showgrid="false"
     fit-margin-top="0"
     fit-margin-left="0"
     fit-margin-right="0"
     fit-margin-bottom="0"
     inkscape:window-width="1274"
     inkscape:window-height="856"
     inkscape:window-x="152"
     inkscape:window-y="0"
     inkscape:window-maximized="0" />
  <metadata
     id="metadata968">
    <rdf:RDF>
      <cc:Work
         rdf:about="">
        <dc:format>image/svg+xml</dc:format>
        <dc:type
           rdf:resource="http://purl.org/dc/dcmitype/StillImage" />
        <dc:title></dc:title>
      </cc:Work>
    </rdf:RDF>
  </metadata>
  <g
     inkscape:label="Layer 1"
     inkscape:groupmode="layer"
     id="layer1"
     transform="translate(-79.800684,-51.55595)">
    <path
       d="m 100.42604,52.150747 c -8.714409,1.284555 -15.116146,6.896033 -17.194197,15.042818 -0.904958,3.583233 -1.173093,8.146785 -0.703856,11.831428 1.206611,9.059497 6.133602,15.313252 13.94305,17.713343 4.524793,1.419771 12.937543,1.48738 17.261233,0.202824 9.82046,-2.974758 14.88152,-11.324369 14.31173,-23.66286 -0.23461,-4.664964 -0.77089,-7.166465 -2.41322,-10.479266 -2.84894,-5.881911 -8.37923,-9.60036 -15.68593,-10.614482 -2.91598,-0.40565 -6.87097,-0.40565 -9.51881,-0.03381 z m 8.88199,11.121545 c 1.80991,0.946513 3.5528,3.008563 4.29017,5.138221 0.87144,2.467697 0.87144,10.073616 0.0335,12.845551 -1.13958,3.786058 -3.48577,5.780498 -7.37374,6.253756 -4.39071,0.507061 -8.211647,-1.994441 -9.451774,-6.321363 -0.904957,-2.940956 -0.904957,-9.397537 -0.03352,-12.372296 0.938475,-3.211388 3.117074,-5.442457 6.066564,-6.219951 1.57531,-0.439454 5.02755,-0.06761 6.46877,0.676082 z"
       id="path104"
       style="fill:#ffffff;stroke:none;stroke-width:0.0336601" />
  </g>
</svg>
