<?xml version="1.0" encoding="UTF-8" standalone="no"?>
<svg
   xmlns:dc="http://purl.org/dc/elements/1.1/"
   xmlns:cc="http://creativecommons.org/ns#"
   xmlns:rdf="http://www.w3.org/1999/02/22-rdf-syntax-ns#"
   xmlns:svg="http://www.w3.org/2000/svg"
   xmlns="http://www.w3.org/2000/svg"
   xmlns:sodipodi="http://sodipodi.sourceforge.net/DTD/sodipodi-0.dtd"
   xmlns:inkscape="http://www.inkscape.org/namespaces/inkscape"
   width="50.553394mm"
   height="46.566669mm"
   viewBox="0 0 50.553394 46.566669"
   version="1.1"
   id="svg971"
   sodipodi:docname="p.svg"
   inkscape:version="1.0 (4035a4fb49, 2020-05-01)">
  <defs
     id="defs965" />
  <sodipodi:namedview
     id="base"
     pagecolor="#ffffff"
     bordercolor="#666666"
     borderopacity="1.0"
     inkscape:pageopacity="0.0"
     inkscape:pageshadow="2"
     inkscape:zoom="1.979899"
     inkscape:cx="163.74294"
     inkscape:cy="126.38371"
     inkscape:document-units="mm"
     inkscape:current-layer="layer1"
     inkscape:document-rotation="0"
     showgrid="false"
     fit-margin-top="0"
     fit-margin-left="0"
     fit-margin-right="0"
     fit-margin-bottom="0"
     inkscape:window-width="1274"
     inkscape:window-height="856"
     inkscape:window-x="152"
     inkscape:window-y="0"
     inkscape:window-maximized="0" />
  <metadata
     id="metadata968">
    <rdf:RDF>
      <cc:Work
         rdf:about="">
        <dc:format>image/svg+xml</dc:format>
        <dc:type
           rdf:resource="http://purl.org/dc/dcmitype/StillImage" />
        <dc:title></dc:title>
      </cc:Work>
    </rdf:RDF>
  </metadata>
  <g
     inkscape:label="Layer 1"
     inkscape:groupmode="layer"
     id="layer1"
     transform="translate(-79.800684,-51.55595)">
    <path
       d="m 86.100684,74.607946 v 22.548343 h 6.984982 6.984984 v -8.37022 -8.370218 h 5.42168 c 6.12017,0 8.58154,-0.444133 11.60837,-2.118176 4.7897,-2.63064 7.21782,-8.370219 6.28648,-14.827244 -0.69849,-4.885474 -2.76072,-8.06274 -6.38626,-9.770948 -3.09336,-1.503222 -4.55688,-1.639879 -18.094439,-1.639879 H 86.100684 Z M 106.85606,61.659731 c 1.62983,0.478298 2.69421,1.571551 3.2264,3.313924 0.33262,1.195745 0.29935,1.639879 -0.16631,2.938116 -0.89807,2.391491 -2.22855,3.074774 -6.41953,3.21143 l -3.42597,0.136657 v -4.987966 -4.987966 h 2.76072 c 1.49679,0 3.29293,0.170821 4.02469,0.375805 z"
       id="path108"
       style="fill:#ffffff;stroke:none;stroke-width:0.0337099" />
  </g>
</svg>
