<?xml version="1.0" encoding="UTF-8" standalone="no"?>
<svg
   xmlns:dc="http://purl.org/dc/elements/1.1/"
   xmlns:cc="http://creativecommons.org/ns#"
   xmlns:rdf="http://www.w3.org/1999/02/22-rdf-syntax-ns#"
   xmlns:svg="http://www.w3.org/2000/svg"
   xmlns="http://www.w3.org/2000/svg"
   xmlns:sodipodi="http://sodipodi.sourceforge.net/DTD/sodipodi-0.dtd"
   xmlns:inkscape="http://www.inkscape.org/namespaces/inkscape"
   width="50.553394mm"
   height="46.566669mm"
   viewBox="0 0 50.553394 46.566669"
   version="1.1"
   id="svg971"
   sodipodi:docname="q.svg"
   inkscape:version="1.0 (4035a4fb49, 2020-05-01)">
  <defs
     id="defs965" />
  <sodipodi:namedview
     id="base"
     pagecolor="#ffffff"
     bordercolor="#666666"
     borderopacity="1.0"
     inkscape:pageopacity="0.0"
     inkscape:pageshadow="2"
     inkscape:zoom="1.979899"
     inkscape:cx="163.74294"
     inkscape:cy="126.38371"
     inkscape:document-units="mm"
     inkscape:current-layer="layer1"
     inkscape:document-rotation="0"
     showgrid="false"
     fit-margin-top="0"
     fit-margin-left="0"
     fit-margin-right="0"
     fit-margin-bottom="0"
     inkscape:window-width="1274"
     inkscape:window-height="856"
     inkscape:window-x="152"
     inkscape:window-y="0"
     inkscape:window-maximized="0" />
  <metadata
     id="metadata968">
    <rdf:RDF>
      <cc:Work
         rdf:about="">
        <dc:format>image/svg+xml</dc:format>
        <dc:type
           rdf:resource="http://purl.org/dc/dcmitype/StillImage" />
        <dc:title></dc:title>
      </cc:Work>
    </rdf:RDF>
  </metadata>
  <g
     inkscape:label="Layer 1"
     inkscape:groupmode="layer"
     id="layer1"
     transform="translate(-79.800684,-51.55595)">
    <path
       d="m 100.44232,52.804295 c -8.572702,0.994893 -14.604211,6.059805 -16.563685,13.988803 -0.76542,2.954532 -0.76542,10.129824 -0.03062,12.813021 0.949121,3.557495 2.541194,6.270841 5.082388,8.743002 2.786128,2.713346 5.327323,4.039868 9.368739,4.853868 4.561908,0.934605 11.665008,0.57282 14.879758,-0.753702 1.01035,-0.422077 1.07159,-0.391927 2.44934,0.602966 2.29627,1.65816 6.76631,4.341356 7.22557,4.341356 0.3674,0 3.4597,-5.84877 3.4597,-6.542182 0,-0.120592 -0.85728,-0.693409 -1.92886,-1.236078 -1.04098,-0.572819 -2.29626,-1.326525 -2.78613,-1.718452 l -0.88788,-0.693411 0.61233,-0.844151 c 1.13282,-1.59786 2.26564,-4.070019 2.90859,-6.391437 0.52049,-1.869193 0.64295,-3.195718 0.64295,-6.84366 0,-5.155357 -0.5511,-7.838554 -2.29625,-11.094568 -1.37776,-2.592753 -4.74561,-5.848768 -7.34804,-7.084846 -3.98017,-1.899342 -9.61366,-2.713346 -14.7879,-2.140529 z m 7.34803,10.039378 c 0.85727,0.391928 1.83701,1.025041 2.20441,1.41697 1.74516,1.869193 2.7555,6.210546 2.41872,10.521751 -0.15307,2.532455 -0.88788,5.547283 -1.37775,5.848765 -0.12246,0.09044 -1.16344,-0.452225 -2.29625,-1.20593 -4.19451,-2.773641 -5.02116,-2.833938 -6.09275,-0.51252 -0.42863,0.964744 -0.82665,1.929489 -0.88788,2.140527 -0.0612,0.18089 0.85727,0.8743 2.0207,1.507415 2.84737,1.537562 2.90859,1.869192 0.27555,1.869192 -3.94956,0 -6.490757,-1.899342 -7.654196,-5.698023 -0.76542,-2.442011 -0.76542,-8.954041 0,-11.094569 1.347139,-3.738388 3.796486,-5.517137 7.715436,-5.517137 1.62268,0 2.51058,0.18089 3.67401,0.723559 z"
       id="path102"
       style="fill:#ffffff;stroke:none;stroke-width:0.0303816" />
  </g>
</svg>
