<?xml version="1.0" encoding="UTF-8" standalone="no"?>
<svg
   xmlns:dc="http://purl.org/dc/elements/1.1/"
   xmlns:cc="http://creativecommons.org/ns#"
   xmlns:rdf="http://www.w3.org/1999/02/22-rdf-syntax-ns#"
   xmlns:svg="http://www.w3.org/2000/svg"
   xmlns="http://www.w3.org/2000/svg"
   xmlns:sodipodi="http://sodipodi.sourceforge.net/DTD/sodipodi-0.dtd"
   xmlns:inkscape="http://www.inkscape.org/namespaces/inkscape"
   width="50.553394mm"
   height="46.566669mm"
   viewBox="0 0 50.553394 46.566669"
   version="1.1"
   id="svg971"
   sodipodi:docname="r.svg"
   inkscape:version="1.0 (4035a4fb49, 2020-05-01)">
  <defs
     id="defs965" />
  <sodipodi:namedview
     id="base"
     pagecolor="#ffffff"
     bordercolor="#666666"
     borderopacity="1.0"
     inkscape:pageopacity="0.0"
     inkscape:pageshadow="2"
     inkscape:zoom="1.979899"
     inkscape:cx="163.74294"
     inkscape:cy="126.38371"
     inkscape:document-units="mm"
     inkscape:current-layer="layer1"
     inkscape:document-rotation="0"
     showgrid="false"
     fit-margin-top="0"
     fit-margin-left="0"
     fit-margin-right="0"
     fit-margin-bottom="0"
     inkscape:window-width="1274"
     inkscape:window-height="856"
     inkscape:window-x="152"
     inkscape:window-y="0"
     inkscape:window-maximized="0" />
  <metadata
     id="metadata968">
    <rdf:RDF>
      <cc:Work
         rdf:about="">
        <dc:format>image/svg+xml</dc:format>
        <dc:type
           rdf:resource="http://purl.org/dc/dcmitype/StillImage" />
        <dc:title></dc:title>
      </cc:Work>
    </rdf:RDF>
  </metadata>
  <g
     inkscape:label="Layer 1"
     inkscape:groupmode="layer"
     id="layer1"
     transform="translate(-79.800684,-51.55595)">
    <path
       d="m 83.213814,74.741578 v 22.815613 h 7.210855 7.210854 l 0.07035,-9.264524 0.105525,-9.229951 1.547696,0.103707 c 1.864266,0.103707 3.271256,0.79509 4.185806,2.039578 0.38692,0.553105 2.56777,4.355708 4.85413,8.504001 2.2512,4.182861 4.29134,7.639774 4.50239,7.70891 0.24622,0.06914 3.90441,0.103707 8.19575,0.06914 l 7.80884,-0.103707 -3.86925,-7.294081 c -4.18582,-7.916328 -6.22596,-10.612718 -9.00477,-12.03005 l -1.58287,-0.760521 1.54769,-0.449399 c 3.37679,-0.967935 6.64806,-3.733463 8.12541,-6.879252 1.12559,-2.350699 1.12559,-8.504001 0.0352,-10.820131 -1.05525,-2.212422 -3.09539,-4.355708 -5.20589,-5.39278 -3.16574,-1.59018 -5.83903,-1.797594 -21.386326,-1.832163 H 83.213814 Z M 108.15281,61.812732 c 2.60294,1.002504 3.30644,4.63226 1.30148,6.671838 -1.23113,1.244487 -3.58785,1.763024 -8.16059,1.763024 H 97.635523 V 65.75361 61.259626 h 4.572727 c 3.34161,0 4.92448,0.138277 5.94456,0.553106 z"
       id="path110"
       style="fill:#ffffff;stroke:none;stroke-width:0.0348706" />
  </g>
</svg>
