<?xml version="1.0" encoding="UTF-8" standalone="no"?>
<svg
   xmlns:dc="http://purl.org/dc/elements/1.1/"
   xmlns:cc="http://creativecommons.org/ns#"
   xmlns:rdf="http://www.w3.org/1999/02/22-rdf-syntax-ns#"
   xmlns:svg="http://www.w3.org/2000/svg"
   xmlns="http://www.w3.org/2000/svg"
   xmlns:sodipodi="http://sodipodi.sourceforge.net/DTD/sodipodi-0.dtd"
   xmlns:inkscape="http://www.inkscape.org/namespaces/inkscape"
   width="50.553394mm"
   height="46.566669mm"
   viewBox="0 0 50.553394 46.566669"
   version="1.1"
   id="svg971"
   sodipodi:docname="u.svg"
   inkscape:version="1.0 (4035a4fb49, 2020-05-01)">
  <defs
     id="defs965" />
  <sodipodi:namedview
     id="base"
     pagecolor="#ffffff"
     bordercolor="#666666"
     borderopacity="1.0"
     inkscape:pageopacity="0.0"
     inkscape:pageshadow="2"
     inkscape:zoom="1.979899"
     inkscape:cx="163.74294"
     inkscape:cy="126.38371"
     inkscape:document-units="mm"
     inkscape:current-layer="layer1"
     inkscape:document-rotation="0"
     showgrid="false"
     fit-margin-top="0"
     fit-margin-left="0"
     fit-margin-right="0"
     fit-margin-bottom="0"
     inkscape:window-width="1274"
     inkscape:window-height="856"
     inkscape:window-x="152"
     inkscape:window-y="0"
     inkscape:window-maximized="0" />
  <metadata
     id="metadata968">
    <rdf:RDF>
      <cc:Work
         rdf:about="">
        <dc:format>image/svg+xml</dc:format>
        <dc:type
           rdf:resource="http://purl.org/dc/dcmitype/StillImage" />
        <dc:title></dc:title>
      </cc:Work>
    </rdf:RDF>
  </metadata>
  <g
     inkscape:label="Layer 1"
     inkscape:groupmode="layer"
     id="layer1"
     transform="translate(-79.800684,-51.55595)">
    <path
       d="m 83.728616,67.022788 c 0.103311,13.150141 0.206624,15.32484 0.75762,17.261686 0.929808,3.36399 2.445049,6.048381 4.614599,8.189102 3.650355,3.601852 6.990774,4.655222 15.359035,4.961039 6.23316,0.203872 9.88352,-0.271835 13.15506,-1.766949 2.54836,-1.121324 6.54309,-5.13093 7.78283,-7.713385 1.85961,-3.873688 1.96293,-4.961037 1.96293,-21.101392 V 52.003765 h -7.05965 -7.05965 v 14.849124 c 0,13.727796 -0.0689,14.985044 -0.65431,16.242294 -1.23974,2.650414 -3.5126,3.907664 -6.99077,3.907664 -2.47949,0 -4.44242,-0.781534 -5.854351,-2.242656 -1.790735,-1.902868 -1.790735,-1.970825 -1.928485,-17.907302 L 97.710162,52.003765 h -7.059648 -7.094085 z"
       id="path116"
       style="fill:#ffffff;stroke:none;stroke-width:0.0342077" />
  </g>
</svg>
