<?xml version="1.0" encoding="UTF-8" standalone="no"?>
<svg
   xmlns:dc="http://purl.org/dc/elements/1.1/"
   xmlns:cc="http://creativecommons.org/ns#"
   xmlns:rdf="http://www.w3.org/1999/02/22-rdf-syntax-ns#"
   xmlns:svg="http://www.w3.org/2000/svg"
   xmlns="http://www.w3.org/2000/svg"
   xmlns:sodipodi="http://sodipodi.sourceforge.net/DTD/sodipodi-0.dtd"
   xmlns:inkscape="http://www.inkscape.org/namespaces/inkscape"
   width="50.553394mm"
   height="46.566669mm"
   viewBox="0 0 50.553394 46.566669"
   version="1.1"
   id="svg971"
   sodipodi:docname="w.svg"
   inkscape:version="1.0 (4035a4fb49, 2020-05-01)">
  <defs
     id="defs965" />
  <sodipodi:namedview
     id="base"
     pagecolor="#ffffff"
     bordercolor="#666666"
     borderopacity="1.0"
     inkscape:pageopacity="0.0"
     inkscape:pageshadow="2"
     inkscape:zoom="1.979899"
     inkscape:cx="163.74294"
     inkscape:cy="126.38371"
     inkscape:document-units="mm"
     inkscape:current-layer="layer1"
     inkscape:document-rotation="0"
     showgrid="false"
     fit-margin-top="0"
     fit-margin-left="0"
     fit-margin-right="0"
     fit-margin-bottom="0"
     inkscape:window-width="1274"
     inkscape:window-height="856"
     inkscape:window-x="152"
     inkscape:window-y="0"
     inkscape:window-maximized="0" />
  <metadata
     id="metadata968">
    <rdf:RDF>
      <cc:Work
         rdf:about="">
        <dc:format>image/svg+xml</dc:format>
        <dc:type
           rdf:resource="http://purl.org/dc/dcmitype/StillImage" />
        <dc:title></dc:title>
      </cc:Work>
    </rdf:RDF>
  </metadata>
  <g
     inkscape:label="Layer 1"
     inkscape:groupmode="layer"
     id="layer1"
     transform="translate(-79.800684,-51.55595)">
    <path
       d="m 81.447984,54.995236 c 0,0.213637 1.66991,9.24743 3.699495,20.081877 l 3.6738,19.685127 5.163882,0.09156 5.163876,0.06108 0.35967,-1.434424 c 0.20553,-0.824028 1.515773,-6.378588 2.903083,-12.360424 1.56714,-6.744824 2.62047,-10.742888 2.72323,-10.468212 0.12846,0.244156 1.46439,5.737679 3.00584,12.268868 l 2.80032,11.841593 5.13819,0.09156 c 4.75281,0.06108 5.16387,0.03054 5.29233,-0.457788 0.15414,-0.610395 5.44648,-29.237752 6.47411,-34.883873 0.33398,-1.922733 0.66797,-3.814946 0.74504,-4.2117 l 0.12845,-0.671431 h -4.95835 -4.95835 l -0.95056,6.012356 c -0.53951,3.326633 -1.33593,8.270803 -1.77267,11.017564 -0.43676,2.746762 -0.82211,4.913652 -0.89919,4.852612 -0.0513,-0.09156 -1.23316,-5.00521 -2.62048,-10.926006 l -2.49201,-10.803928 -5.00974,-0.09156 -4.98404,-0.06104 -2.029583,8.759117 c -1.1304,4.852611 -2.286499,9.827301 -2.594788,11.078604 -0.5652,2.258447 -0.590892,2.258447 -0.770725,1.220782 -0.102763,-0.579872 -0.899179,-5.524042 -1.746982,-10.987045 l -1.592836,-9.918859 -4.958353,-0.09156 c -3.853639,-0.06104 -4.932659,0 -4.932659,0.305195 z"
       id="path114"
       style="fill:#ffffff;stroke:none;stroke-width:0.0280013" />
  </g>
</svg>
