<?xml version="1.0" encoding="UTF-8" standalone="no"?>
<svg
   xmlns:dc="http://purl.org/dc/elements/1.1/"
   xmlns:cc="http://creativecommons.org/ns#"
   xmlns:rdf="http://www.w3.org/1999/02/22-rdf-syntax-ns#"
   xmlns:svg="http://www.w3.org/2000/svg"
   xmlns="http://www.w3.org/2000/svg"
   xmlns:sodipodi="http://sodipodi.sourceforge.net/DTD/sodipodi-0.dtd"
   xmlns:inkscape="http://www.inkscape.org/namespaces/inkscape"
   width="50.553394mm"
   height="46.566669mm"
   viewBox="0 0 50.553394 46.566669"
   version="1.1"
   id="svg971"
   sodipodi:docname="x.svg"
   inkscape:version="1.0 (4035a4fb49, 2020-05-01)">
  <defs
     id="defs965" />
  <sodipodi:namedview
     id="base"
     pagecolor="#ffffff"
     bordercolor="#666666"
     borderopacity="1.0"
     inkscape:pageopacity="0.0"
     inkscape:pageshadow="2"
     inkscape:zoom="1.979899"
     inkscape:cx="163.74294"
     inkscape:cy="126.38371"
     inkscape:document-units="mm"
     inkscape:current-layer="layer1"
     inkscape:document-rotation="0"
     showgrid="false"
     fit-margin-top="0"
     fit-margin-left="0"
     fit-margin-right="0"
     fit-margin-bottom="0"
     inkscape:window-width="1274"
     inkscape:window-height="856"
     inkscape:window-x="152"
     inkscape:window-y="0"
     inkscape:window-maximized="0" />
  <metadata
     id="metadata968">
    <rdf:RDF>
      <cc:Work
         rdf:about="">
        <dc:format>image/svg+xml</dc:format>
        <dc:type
           rdf:resource="http://purl.org/dc/dcmitype/StillImage" />
        <dc:title></dc:title>
      </cc:Work>
    </rdf:RDF>
  </metadata>
  <g
     inkscape:label="Layer 1"
     inkscape:groupmode="layer"
     id="layer1"
     transform="translate(-79.800684,-51.55595)">
    <path
       d="m 82.076677,52.66195 c 0,0.169302 3.12431,4.977484 6.9429,10.666038 3.818601,5.688554 6.942907,10.429015 6.942907,10.530596 0,0.101582 -3.50617,5.34995 -7.810765,11.681851 l -7.776053,11.512554 h 7.949627 7.914905 l 4.339312,-6.839817 c 2.3953,-3.792364 4.47817,-6.873664 4.65174,-6.873664 0.13886,0 2.22173,3.0813 4.58232,6.873664 l 4.30459,6.839817 h 7.94963 c 6.28332,0 7.91491,-0.101587 7.70662,-0.440194 -0.17357,-0.203156 -3.61031,-5.349941 -7.67191,-11.377104 -4.09631,-6.061017 -7.35947,-11.140083 -7.29004,-11.343246 0.10414,-0.203163 3.15902,-4.909764 6.83876,-10.496736 3.64502,-5.553112 6.73461,-10.327434 6.83875,-10.564457 0.13886,-0.406325 -1.11086,-0.474046 -7.46362,-0.474046 h -7.6719 l -3.88803,6.805948 c -2.11758,3.724649 -3.99216,6.670506 -4.16574,6.501204 -0.17357,-0.169302 -1.97873,-3.182881 -4.06159,-6.704367 l -3.818603,-6.433483 -7.671898,-0.101581 c -4.721176,-0.03386 -7.671912,0.03386 -7.671912,0.237023 z"
       id="path124"
       style="fill:#ffffff;stroke:none;stroke-width:0.0342847" />
  </g>
</svg>
