<?xml version="1.0" encoding="UTF-8"?>
<svg width="1200" height="1200" version="1.1" viewBox="0 0 1200 1200" xmlns="http://www.w3.org/2000/svg" xmlns:cc="http://creativecommons.org/ns#" xmlns:dc="http://purl.org/dc/elements/1.1/" xmlns:rdf="http://www.w3.org/1999/02/22-rdf-syntax-ns#">
 <metadata>
  <rdf:RDF>
   <cc:Work rdf:about="">
    <dc:format>image/svg+xml</dc:format>
    <dc:type rdf:resource="http://purl.org/dc/dcmitype/StillImage"/>
    <dc:title/>
   </cc:Work>
  </rdf:RDF>
 </metadata>
 <g transform="translate(1.8018 3.6036)">
  <path d="m560.15 1039.7c2.3375-0.2105 6.1625-0.2105 8.5 0s0.425 0.3828-4.25 0.3828-6.5875-0.1723-4.25-0.3828zm69.026 0c2.352-0.2112 5.952-0.2083 8 0.01 2.048 0.2149 0.12357 0.3877-4.2764 0.3841-4.4 0-6.0756-0.1795-3.7236-0.3907zm-88.526-1.9841c1.5125-0.2291 3.9875-0.2291 5.5 0 1.5125 0.2292 0.275 0.4166-2.75 0.4166s-4.2625-0.1874-2.75-0.4166zm111.01 0c1.5201-0.2298 3.7701-0.2237 5 0.014 1.2299 0.2373-0.0137 0.4254-2.7638 0.4179-2.75-0.01-3.7563-0.2017-2.2362-0.4316zm-124.5-1.9897c1.2439-0.2392 3.0439-0.2301 4 0.02 0.95609 0.2503-0.0617 0.446-2.2617 0.4349-2.2-0.011-2.9822-0.2159-1.7383-0.4551zm139 0c1.2439-0.2392 3.0439-0.2301 4 0.02 0.95609 0.2503-0.0617 0.446-2.2617 0.4349-2.2-0.011-2.9822-0.2159-1.7383-0.4551zm-150.51-1.9833c0.9625-0.2516 2.5375-0.2516 3.5 0 0.9625 0.2515 0.175 0.4573-1.75 0.4573s-2.7125-0.2058-1.75-0.4573zm162 0c0.9625-0.2516 2.5375-0.2516 3.5 0 0.9625 0.2515 0.175 0.4573-1.75 0.4573s-2.7125-0.2058-1.75-0.4573zm-171.98-2.0037c0.97297-0.2535 2.323-0.2369 3 0.037s-0.11903 0.4813-1.769 0.461c-1.65-0.02-2.2039-0.2445-1.231-0.4981zm183 0c0.97297-0.2535 2.323-0.2369 3 0.037s-0.11903 0.4813-1.769 0.461c-1.65-0.02-2.2039-0.2445-1.231-0.4981zm-192-2c0.97297-0.2535 2.323-0.2369 3 0.037s-0.11903 0.4813-1.769 0.461c-1.65-0.02-2.2039-0.2445-1.231-0.4981zm201.48 0.031c0.6875-0.2774 1.8125-0.2774 2.5 0s0.125 0.5044-1.25 0.5044-1.9375-0.227-1.25-0.5044zm-210-2c0.6875-0.2774 1.8125-0.2774 2.5 0s0.125 0.5044-1.25 0.5044-1.9375-0.227-1.25-0.5044zm218 0c0.6875-0.2774 1.8125-0.2774 2.5 0s0.125 0.5044-1.25 0.5044-1.9375-0.227-1.25-0.5044zm-224.94-2.0208c0.72187-0.2889 1.5844-0.2534 1.9167 0.079 0.33229 0.3323-0.25834 0.5687-1.3125 0.5253-1.165-0.048-1.4019-0.285-0.60417-0.6042zm232.94 0.021c0.6875-0.2774 1.8125-0.2774 2.5 0s0.125 0.5044-1.25 0.5044-1.9375-0.227-1.25-0.5044zm-240.25-1.3382c-0.33992-0.55 0.11008-1 1-1s1.3399 0.45 1 1-0.78992 1-1 1-0.66008-0.45-1-1zm248 0c-0.33992-0.55 0.11008-1 1-1s1.3399 0.45 1 1-0.78992 1-1 1-0.66008-0.45-1-1zm-255-2c-0.33992-0.55 0.11008-1 1-1s1.3399 0.45 1 1-0.78992 1-1 1-0.66008-0.45-1-1zm261.5 0c0-0.55 0.45-1 1-1s1 0.45 1 1-0.45 1-1 1-1-0.45-1-1zm-268-2c0-0.55 0.45-1 1-1s1 0.45 1 1-0.45 1-1 1-1-0.45-1-1zm274.5 0c0.33992-0.55 0.81648-1 1.059-1s0.44098 0.45 0.44098 1-0.47656 1-1.059 1-0.7809-0.45-0.44098-1zm-280.5-2c0-0.55 0.45-1 1-1s1 0.45 1 1-0.45 1-1 1-1-0.45-1-1zm286.5 0c0.33992-0.55 0.81648-1 1.059-1s0.44098 0.45 0.44098 1-0.47656 1-1.059 1-0.7809-0.45-0.44098-1zm-291.5-2.059c0-0.5825 0.45-0.7809 1-0.441s1 0.8165 1 1.059c0 0.2426-0.45 0.441-1 0.441s-1-0.4766-1-1.059zm297.5 0.059c0.33992-0.55 0.81648-1 1.059-1s0.44098 0.45 0.44098 1-0.47656 1-1.059 1-0.7809-0.45-0.44098-1zm4.5-1.393c0-0.2162 0.675-0.652 1.5-0.9686s1.5-0.1398 1.5 0.393c0 0.5327-0.675 0.9686-1.5 0.9686s-1.5-0.1769-1.5-0.393zm-313.19-2.2901c0.72187-0.2889 1.5844-0.2534 1.9167 0.079 0.33229 0.3323-0.25834 0.5687-1.3125 0.5253-1.165-0.048-1.4019-0.285-0.60417-0.6042zm319 0c0.72187-0.2889 1.5844-0.2534 1.9167 0.079 0.33229 0.3323-0.25834 0.5687-1.3125 0.5253-1.165-0.048-1.4019-0.285-0.60417-0.6042zm-329-4c0.72187-0.2889 1.5844-0.2534 1.9167 0.079 0.33229 0.3323-0.25834 0.5687-1.3125 0.5253-1.165-0.048-1.4019-0.285-0.60417-0.6042zm339 0c0.72187-0.2889 1.5844-0.2534 1.9167 0.079 0.33229 0.3323-0.25834 0.5687-1.3125 0.5253-1.165-0.048-1.4019-0.285-0.60417-0.6042zm5-2c0.72187-0.2889 1.5844-0.2534 1.9167 0.079 0.33229 0.3323-0.25834 0.5687-1.3125 0.5253-1.165-0.048-1.4019-0.285-0.60417-0.6042zm-353-2c0.72187-0.2889 1.5844-0.2534 1.9167 0.079 0.33229 0.3323-0.25834 0.5687-1.3125 0.5253-1.165-0.048-1.4019-0.285-0.60417-0.6042zm358 0c0.72187-0.2889 1.5844-0.2534 1.9167 0.079 0.33229 0.3323-0.25834 0.5687-1.3125 0.5253-1.165-0.048-1.4019-0.285-0.60417-0.6042zm4-2c0.72187-0.2889 1.5844-0.2534 1.9167 0.079 0.33229 0.3323-0.25834 0.5687-1.3125 0.5253-1.165-0.048-1.4019-0.285-0.60417-0.6042zm9-4c0.72187-0.2889 1.5844-0.2534 1.9167 0.079 0.33229 0.3323-0.25834 0.5687-1.3125 0.5253-1.165-0.048-1.4019-0.285-0.60417-0.6042zm33.688-17.317c0.33992-0.55 0.81648-1 1.059-1s0.44098 0.45 0.44098 1-0.47656 1-1.059 1-0.7809-0.45-0.44098-1zm122.5-102.45c0-0.38163 0.675-1.3689 1.5-2.1939s1.5-1.073 1.5-0.55101-0.675 1.5092-1.5 2.1939-1.5 0.93265-1.5 0.55102zm-610.25-5.2133c0.6875-0.27741 1.8125-0.27741 2.5 0s0.125 0.50439-1.25 0.50439-1.9375-0.22698-1.25-0.50439zm63 0c0.6875-0.27741 1.8125-0.27741 2.5 0s0.125 0.50439-1.25 0.50439-1.9375-0.22698-1.25-0.50439zm-78.938-2.0208c0.72187-0.28887 1.5844-0.25335 1.9167 0.0789 0.33229 0.33229-0.25834 0.56864-1.3125 0.52522-1.165-0.048-1.4019-0.28494-0.60417-0.60416zm653.19-31.317c0-0.55 0.45-1 1-1s1 0.45 1 1-0.45 1-1 1-1-0.45-1-1zm2-10.608c0-2.5991 0.21715-4.5085 0.48256-4.2431 0.99857 0.99858 1.3794 7.8181 0.46803 8.3813-0.54956 0.33965-0.95059-1.4061-0.95059-4.1382zm-2-10.392c0-0.55 0.45-1 1-1s1 0.45 1 1-0.45 1-1 1-1-0.45-1-1zm10-1.8613c0-0.47373 1.125-0.64627 2.5-0.38342s2.5 0.65044 2.5 0.86133c0 0.21088-1.125 0.38342-2.5 0.38342s-2.5-0.3876-2.5-0.86133zm-11.333-1.8053c-0.36667-0.36666-0.66667-1.1317-0.66667-1.7 0-0.6266 0.46577-0.56756 1.1833 0.15 0.65084 0.65084 0.95084 1.4158 0.66667 1.7-0.28417 0.28417-0.81667 0.21667-1.1833-0.15zm-2.6667-4.3333c0-0.55 0.45-1 1-1s1 0.45 1 1-0.45 1-1 1-1-0.45-1-1zm10.079-1.5833c0.048-1.165 0.28494-1.4019 0.60416-0.60417 0.28887 0.72187 0.25335 1.5844-0.0789 1.9167-0.33229 0.33229-0.56864-0.25834-0.52522-1.3125zm-1.9211-5.4167c0-1.375 0.22698-1.9375 0.50439-1.25s0.27741 1.8125 0 2.5-0.50439 0.125-0.50439-1.25zm-2-7c0-1.375 0.22698-1.9375 0.50439-1.25s0.27741 1.8125 0 2.5-0.50439 0.125-0.50439-1.25zm27.921-4.5833c0.048-1.165 0.285-1.4019 0.6042-0.60417 0.2889 0.72187 0.2534 1.5844-0.079 1.9167-0.3323 0.33229-0.5687-0.25834-0.5253-1.3125zm-29.884-2.9167c0.0204-1.65 0.2445-2.2039 0.49804-1.231s0.23687 2.323-0.0371 3c-0.27393 0.67703-0.48137-0.11903-0.46099-1.769zm-2-8c0.0204-1.65 0.2445-2.2039 0.49804-1.231s0.23687 2.323-0.0371 3c-0.27393 0.67703-0.48137-0.11903-0.46099-1.769zm-39.195-3.559c0-0.58246 0.45-0.7809 1-0.44098s1 0.81648 1 1.059-0.45 0.44098-1 0.44098-1-0.47656-1-1.059zm-4-1.941c0-0.55 0.45-1 1-1s1 0.45 1 1-0.45 1-1 1-1-0.45-1-1zm82 0c0-0.55 0.45-1 1-1s1 0.45 1 1-0.45 1-1 1-1-0.45-1-1zm-85-2.059c0-0.58246 0.45-0.7809 1-0.44098s1 0.81648 1 1.059-0.45 0.44098-1 0.44098-1-0.47656-1-1.059zm44.158-0.94098c0-1.375 0.22698-1.9375 0.50439-1.25s0.27741 1.8125 0 2.5-0.50439 0.125-0.50439-1.25zm-55.345-4.6831c0.72187-0.28887 1.5844-0.25335 1.9167 0.0789 0.33229 0.33229-0.25834 0.56864-1.3125 0.52522-1.165-0.048-1.4019-0.28494-0.60417-0.60416zm100.27-0.90022c0.048-1.165 0.285-1.4019 0.6042-0.60417 0.2889 0.72187 0.2534 1.5844-0.079 1.9167-0.3323 0.33229-0.5687-0.25834-0.5253-1.3125zm-104.27-1.0998c0.72187-0.28887 1.5844-0.25335 1.9167 0.0789 0.33229 0.33229-0.25834 0.56864-1.3125 0.52522-1.165-0.048-1.4019-0.28494-0.60417-0.60416zm57.203-1.5669c0.0124-1.8194 0.20082-1.963 0.98469-0.75 1.2529 1.9388 1.2529 3 0 3-0.55 0-0.99311-1.0125-0.98469-2.25zm48.985-1.75c0-0.55 0.4766-1 1.059-1 0.5825 0 0.7809 0.45 0.441 1s-0.8165 1-1.059 1c-0.2426 0-0.441-0.45-0.441-1zm-115.19-0.68311c0.72187-0.28887 1.5844-0.25335 1.9167 0.0789 0.33229 0.33229-0.25834 0.56864-1.3125 0.52522-1.165-0.048-1.4019-0.28494-0.60417-0.60416zm-4-2c0.72187-0.28887 1.5844-0.25335 1.9167 0.0789 0.33229 0.33229-0.25834 0.56864-1.3125 0.52522-1.165-0.048-1.4019-0.28494-0.60417-0.60416zm-5-2c0.72187-0.28887 1.5844-0.25335 1.9167 0.0789 0.33229 0.33229-0.25834 0.56864-1.3125 0.52522-1.165-0.048-1.4019-0.28494-0.60417-0.60416zm73.218-1.8669c0.0267-2.5861 0.16279-2.7222 1.1036-1.1036 0.76916 1.3233 0.76054 2.159-0.0304 2.95-0.80483 0.80483-1.0954 0.30495-1.0732-1.8464zm-78.218-0.13311c0.72187-0.28887 1.5844-0.25335 1.9167 0.0789 0.33229 0.33229-0.25834 0.56864-1.3125 0.52522-1.165-0.048-1.4019-0.28494-0.60417-0.60416zm-5-2c0.72187-0.28887 1.5844-0.25335 1.9167 0.0789 0.33229 0.33229-0.25834 0.56864-1.3125 0.52522-1.165-0.048-1.4019-0.28494-0.60417-0.60416zm138.27-0.90022c0.048-1.165 0.285-1.4019 0.6042-0.60417 0.2889 0.72187 0.2534 1.5844-0.079 1.9167-0.3323 0.33229-0.5687-0.25834-0.5253-1.3125zm-144.33-1.079c0.6875-0.27741 1.8125-0.27741 2.5 0s0.125 0.50439-1.25 0.50439-1.9375-0.22698-1.25-0.50439zm-4.9375-2.0208c0.72187-0.28887 1.5844-0.25335 1.9167 0.0789 0.33229 0.33229-0.25834 0.56864-1.3125 0.52522-1.165-0.048-1.4019-0.28494-0.60417-0.60416zm92.188-1.8759c0-0.85746 0.45-1.2809 1-0.94098s1 1.0415 1 1.559-0.45 0.94098-1 0.94098-1-0.70156-1-1.559zm-98.188-0.12409c0.72187-0.28887 1.5844-0.25335 1.9167 0.0789 0.33229 0.33229-0.25834 0.56864-1.3125 0.52522-1.165-0.048-1.4019-0.28494-0.60417-0.60416zm157.27-0.90022c0.048-1.165 0.285-1.4019 0.6042-0.60417 0.2889 0.72187 0.2534 1.5844-0.079 1.9167-0.3323 0.33229-0.5687-0.25834-0.5253-1.3125zm-163.27-1.0998c0.72187-0.28887 1.5844-0.25335 1.9167 0.0789 0.33229 0.33229-0.25834 0.56864-1.3125 0.52522-1.165-0.048-1.4019-0.28494-0.60417-0.60416zm-6-2c0.72187-0.28887 1.5844-0.25335 1.9167 0.0789 0.33229 0.33229-0.25834 0.56864-1.3125 0.52522-1.165-0.048-1.4019-0.28494-0.60417-0.60416zm-6.3125-1.3169c-0.33992-0.55 0.11008-1 1-1s1.3399 0.45 1 1-0.78992 1-1 1-0.66008-0.45-1-1zm177.58-0.58333c0.048-1.165 0.285-1.4019 0.6042-0.60417 0.2889 0.72187 0.2534 1.5844-0.079 1.9167-0.3323 0.33229-0.5687-0.25834-0.5253-1.3125zm-62.496-0.28246c-0.43077-0.697-0.51316-1.5373-0.18309-1.8674 0.89497-0.89496 1.8708 0.4213 1.3874 1.8714-0.33872 1.0162-0.57427 1.0154-1.2043-4e-3zm-122.08-1.1342c-0.33992-0.55 0.0835-1 0.94098-1 0.85746 0 1.559 0.45 1.559 1s-0.42344 1-0.94098 1-1.2191-0.45-1.559-1zm-7-2c-0.33992-0.55 0.0835-1 0.94098-1 0.85746 0 1.559 0.45 1.559 1s-0.42344 1-0.94098 1-1.2191-0.45-1.559-1zm193.58-1.5833c0.048-1.165 0.285-1.4019 0.6042-0.60417 0.2889 0.72187 0.2534 1.5844-0.079 1.9167-0.3323 0.33229-0.5687-0.25834-0.5253-1.3125zm-201.08-0.41667c0-0.55 0.675-1 1.5-1s1.5 0.45 1.5 1-0.675 1-1.5 1-1.5-0.45-1.5-1zm-8-1.393c0-0.94863 2.9934-1.4267 3.527-0.56332 0.32508 0.52598-0.33551 0.95633-1.468 0.95633s-2.059-0.17686-2.059-0.39301zm142.58-1.4728c-0.43077-0.697-0.51316-1.5373-0.18309-1.8674 0.89497-0.89496 1.8708 0.4213 1.3874 1.8714-0.33872 1.0162-0.57427 1.0154-1.2043-4e-3zm-149.83-0.79649c0.6875-0.27741 1.8125-0.27741 2.5 0s0.125 0.50439-1.25 0.50439-1.9375-0.22698-1.25-0.50439zm218.33-1.921c0.048-1.165 0.285-1.4019 0.6042-0.60417 0.2889 0.72187 0.2534 1.5844-0.079 1.9167-0.3323 0.33229-0.5687-0.25834-0.5253-1.3125zm-226.81-0.10966c0.97297-0.25354 2.323-0.23687 3 0.0371 0.67703 0.27393-0.11903 0.48137-1.769 0.46099-1.65-0.0204-2.2039-0.2445-1.231-0.49804zm-9-2c0.97297-0.25354 2.323-0.23687 3 0.0371 0.67703 0.27393-0.11903 0.48137-1.769 0.46099-1.65-0.0204-2.2039-0.2445-1.231-0.49804zm-9-2c0.97297-0.25354 2.323-0.23687 3 0.0371 0.67703 0.27393-0.11903 0.48137-1.769 0.46099-1.65-0.0204-2.2039-0.2445-1.231-0.49804zm174.81-0.89034c0.048-1.165 0.28494-1.4019 0.60416-0.60417 0.28887 0.72187 0.25335 1.5844-0.0789 1.9167-0.33229 0.33229-0.56864-0.25834-0.52522-1.3125zm72-1c0.048-1.165 0.285-1.4019 0.6042-0.60417 0.2889 0.72187 0.2534 1.5844-0.079 1.9167-0.3323 0.33229-0.5687-0.25834-0.5253-1.3125zm-257.83-0.106c0.9625-0.25152 2.5375-0.25152 3.5 0 0.9625 0.25153 0.175 0.45733-1.75 0.45733s-2.7125-0.2058-1.75-0.45733zm-10-2c0.9625-0.25152 2.5375-0.25152 3.5 0 0.9625 0.25153 0.175 0.45733-1.75 0.45733s-2.7125-0.2058-1.75-0.45733zm-11.488-2.0179c1.2439-0.23919 3.0439-0.23011 4 0.0202 0.95609 0.25029-0.0617 0.446-2.2617 0.4349-2.2-0.0111-2.9822-0.21589-1.7383-0.45508zm205.32-1.8761c0.048-1.165 0.28494-1.4019 0.60416-0.60417 0.28887 0.72187 0.25335 1.5844-0.0789 1.9167-0.33229 0.33229-0.56864-0.25834-0.52522-1.3125zm76 0c0.048-1.165 0.285-1.4019 0.6042-0.60417 0.2889 0.72187 0.2534 1.5844-0.079 1.9167-0.3323 0.33229-0.5687-0.25834-0.5253-1.3125zm-293.32-0.12393c1.2439-0.23919 3.0439-0.23011 4 0.0202 0.95609 0.25029-0.0617 0.446-2.2617 0.4349-2.2-0.0111-2.9822-0.21589-1.7383-0.45508zm-14.012-1.9985c1.2375-0.23836 3.2625-0.23836 4.5 0 1.2375 0.23835 0.225 0.43337-2.25 0.43337s-3.4875-0.19502-2.25-0.43337zm-14.486-2.0118c1.5201-0.22986 3.7701-0.22371 5 0.0136 1.2299 0.23736-0.0137 0.42542-2.7638 0.41792-2.75-8e-3 -3.7563-0.20172-2.2362-0.43157zm323.89-2.2824c0-1.375 0.227-1.9375 0.5044-1.25s0.2774 1.8125 0 2.5-0.5044 0.125-0.5044-1.25zm-340.91 0.28375c1.5125-0.22913 3.9875-0.22913 5.5 0 1.5125 0.22912 0.275 0.41659-2.75 0.41659s-4.2625-0.18747-2.75-0.41659zm260.83-0.86708c0.048-1.165 0.28494-1.4019 0.60416-0.60417 0.28887 0.72187 0.25335 1.5844-0.0789 1.9167-0.33229 0.33229-0.56864-0.25834-0.52522-1.3125zm-2-6c0.048-1.165 0.28494-1.4019 0.60416-0.60417 0.28887 0.72187 0.25335 1.5844-0.0789 1.9167-0.33229 0.33229-0.56864-0.25834-0.52522-1.3125zm84.079-0.41667c0-1.375 0.227-1.9375 0.5044-1.25s0.2774 1.8125 0 2.5-0.5044 0.125-0.5044-1.25zm-86-6c0-1.375 0.22698-1.9375 0.50439-1.25s0.27741 1.8125 0 2.5-0.50439 0.125-0.50439-1.25zm88-1c0-1.375 0.227-1.9375 0.5044-1.25s0.2774 1.8125 0 2.5-0.5044 0.125-0.5044-1.25zm-90.079-4.5833c0.048-1.165 0.28494-1.4019 0.60416-0.60417 0.28887 0.72187 0.25335 1.5844-0.0789 1.9167-0.33229 0.33229-0.56864-0.25834-0.52522-1.3125zm92.079-3.4167c0-1.375 0.227-1.9375 0.5044-1.25s0.2774 1.8125 0 2.5-0.5044 0.125-0.5044-1.25zm-94.079-2.5833c0.048-1.165 0.28494-1.4019 0.60416-0.60417 0.28887 0.72187 0.25335 1.5844-0.0789 1.9167-0.33229 0.33229-0.56864-0.25834-0.52522-1.3125zm-2-5c0.048-1.165 0.28494-1.4019 0.60416-0.60417 0.28887 0.72187 0.25335 1.5844-0.0789 1.9167-0.33229 0.33229-0.56864-0.25834-0.52522-1.3125zm98.116-0.91667c0.02-1.65 0.2445-2.2039 0.4981-1.231 0.2535 0.97297 0.2369 2.323-0.037 3s-0.4813-0.11903-0.461-1.769zm-100.12-5.0833c0.048-1.165 0.28494-1.4019 0.60416-0.60417 0.28887 0.72187 0.25335 1.5844-0.0789 1.9167-0.33229 0.33229-0.56864-0.25834-0.52522-1.3125zm102.12-3.9167c0.02-1.65 0.2445-2.2039 0.4981-1.231 0.2535 0.97297 0.2369 2.323-0.037 3s-0.4813-0.11903-0.461-1.769zm-106.12-6.0833c0.048-1.165 0.28494-1.4019 0.60416-0.60417 0.28887 0.72187 0.25335 1.5844-0.0789 1.9167-0.33229 0.33229-0.56864-0.25834-0.52522-1.3125zm106.94-3.6667c0.01-0.6875 0.4515-1.925 0.9847-2.75 0.7554-1.1689 0.9728-0.89294 0.9847 1.25 0.01 1.5125-0.4347 2.75-0.9847 2.75s-0.9931-0.5625-0.9847-1.25zm-110.94-5.3333c0.048-1.165 0.28494-1.4019 0.60416-0.60417 0.28887 0.72187 0.25335 1.5844-0.0789 1.9167-0.33229 0.33229-0.56864-0.25834-0.52522-1.3125zm112.92-6.3576c0-1.0675 0.45-2.2191 1-2.559 0.5672-0.35052 1 0.48962 1 1.941 0 1.4075-0.45 2.559-1 2.559s-1-0.87344-1-1.941zm-883.19-4.7421c0.72187-0.28887 1.5844-0.25335 1.9167 0.0789 0.33229 0.33229-0.25834 0.56864-1.3125 0.52522-1.165-0.048-1.4019-0.28494-0.60417-0.60416zm-17.749-7.3669c0.0596-3.2417 0.12177-3.3039 1.0305-1.0305 0.64038 1.6021 0.61897 2.7676-0.0634 3.45-0.70731 0.70731-1.0106-0.0515-0.96709-2.4195zm779.94 2.05c0-0.55 0.45-1 1-1s1 0.45 1 1-0.45 1-1 1-1-0.45-1-1zm123-4.941c0-1.6825 0.45-3.059 1-3.059s1 1.0984 1 2.441-0.45 2.7191-1 3.059c-0.5834 0.36058-1-0.65628-1-2.441zm-125 0.94098c0-0.55 0.45-1 1-1s1 0.45 1 1-0.45 1-1 1-1-0.45-1-1zm-2-4c0-0.55 0.45-1 1-1s1 0.45 1 1-0.45 1-1 1-1-0.45-1-1zm-777.93-13.75c0.0564-3.0082 0.24029-3.3544 0.92971-1.75 1.1941 2.7789 1.1941 5.5 0 5.5-0.55 0-0.96837-1.6875-0.92971-3.75zm907.1-4.25c0-4.4513 0.1578-4.9757 0.8276-2.75 0.4551 1.5125 0.4551 3.9875 0 5.5-0.6698 2.2257-0.8276 1.7013-0.8276-2.75zm-138.67 1c-0.33992-0.55-0.14148-1 0.44098-1s1.059 0.45 1.059 1-0.19844 1-0.44098 1-0.7191-0.45-1.059-1zm-600.5-20c0-0.55 0.47656-1 1.059-1s0.7809 0.45 0.44098 1-0.81648 1-1.059 1-0.44098-0.45-0.44098-1zm-7.5-10c-0.33992-0.55-0.14148-1 0.44098-1s1.059 0.45 1.059 1-0.19844 1-0.44098 1-0.7191-0.45-1.059-1zm746.69-31c-0.043-5.338 0.1402-6.1007 1.0254-4.2663 0.7537 1.5618 0.7694 3.5168 0.052 6.5l-1.0254 4.2663zm-907.09-4.25c-0.0548-2.6125 0.35032-4.75 0.90032-4.75 1.1573 0 1.1573 3.3863 0 7-0.65256 2.0376-0.81908 1.6215-0.90032-2.25zm128.9-13.75c0-0.55 0.47656-1 1.059-1s0.7809 0.45 0.44098 1-0.81648 1-1.059 1-0.44098-0.45-0.44098-1zm776-5.059c0-1.7847 0.4166-2.8016 1-2.441 0.55 0.33992 1 1.7165 1 3.059s-0.45 2.441-1 2.441-1-1.3766-1-3.059zm-902.93-1.191c-0.0387-2.0625 0.37971-3.75 0.92971-3.75 1.1941 0 1.1941 2.7211 0 5.5-0.68942 1.6044-0.87333 1.2582-0.92971-1.75zm124.93 2.25c0-0.55 0.45-1 1-1s1 0.45 1 1-0.45 1-1 1-1-0.45-1-1zm-2-4c0-0.55 0.45-1 1-1s1 0.45 1 1-0.45 1-1 1-1-0.45-1-1zm-2-4c0-0.55 0.45-1 1-1s1 0.45 1 1-0.45 1-1 1-1-0.45-1-1zm771.27-1.693c0.973-0.25354 2.323-0.23687 3 0.0371 0.6771 0.27393-0.119 0.48137-1.769 0.46099-1.65-0.0204-2.2039-0.2445-1.231-0.49804zm-890.25-7.557c0.0104-2.2096 0.29129-2.8144 0.87743-1.8893 0.7863 1.241 0.39992 5.1393-0.50937 5.1393-0.21085 0-0.37648-1.4625-0.36806-3.25zm116.06 0.66667c0.048-1.165 0.28494-1.4019 0.60416-0.60417 0.28887 0.72187 0.25335 1.5844-0.0789 1.9167-0.33229 0.33229-0.56864-0.25834-0.52522-1.3125zm-113.88-11.917c0.0204-1.65 0.2445-2.2039 0.49804-1.231s0.23687 2.323-0.0371 3c-0.27393 0.67703-0.48137-0.11903-0.46099-1.769zm105.88-6.0833c0.048-1.165 0.28494-1.4019 0.60416-0.60417 0.28887 0.72187 0.25335 1.5844-0.0789 1.9167-0.33229 0.33229-0.56864-0.25834-0.52522-1.3125zm-103.88-3.9167c0.0204-1.65 0.2445-2.2039 0.49804-1.231s0.23687 2.323-0.0371 3c-0.27393 0.67703-0.48137-0.11903-0.46099-1.769zm99.884-7.0833c0.048-1.165 0.28494-1.4019 0.60416-0.60417 0.28887 0.72187 0.25335 1.5844-0.0789 1.9167-0.33229 0.33229-0.56864-0.25834-0.52522-1.3125zm-97.884-1.9167c0.0204-1.65 0.2445-2.2039 0.49804-1.231s0.23687 2.323-0.0371 3c-0.27393 0.67703-0.48137-0.11903-0.46099-1.769zm95.884-3.0833c0.048-1.165 0.28494-1.4019 0.60416-0.60417 0.28887 0.72187 0.25335 1.5844-0.0789 1.9167-0.3323 0.33229-0.56864-0.25834-0.52522-1.3125zm-93.847-5.4167c0-1.925 0.2058-2.7125 0.45733-1.75 0.25152 0.9625 0.25152 2.5375 0 3.5-0.25153 0.9625-0.45733 0.175-0.45733-1.75zm91.847-0.58333c0.048-1.165 0.28494-1.4019 0.60416-0.60417 0.28887 0.72187 0.25335 1.5844-0.0789 1.9167-0.3323 0.33229-0.56864-0.25834-0.52522-1.3125zm-1.9211-5.4167c0-1.375 0.22698-1.9375 0.50439-1.25s0.27741 1.8125 0 2.5-0.50439 0.125-0.50439-1.25zm-87.963-1.5c0.0204-1.65 0.2445-2.2039 0.49804-1.231s0.23687 2.323-0.0371 3c-0.27393 0.67703-0.48137-0.11903-0.46099-1.769zm85.884-5.0833c0.048-1.165 0.28494-1.4019 0.60416-0.60417 0.28887 0.72187 0.25335 1.5844-0.0789 1.9167-0.3323 0.33229-0.56864-0.25834-0.52522-1.3125zm-83.921-2.4167c0-1.375 0.22698-1.9375 0.50439-1.25s0.27741 1.8125 0 2.5-0.50439 0.125-0.50439-1.25zm81.921-3.5833c0.048-1.165 0.28494-1.4019 0.60416-0.60417 0.28887 0.72187 0.25335 1.5844-0.0789 1.9167-0.3323 0.33229-0.56864-0.25834-0.52522-1.3125zm262.68-1.1239c1.2439-0.23919 3.0439-0.23011 4 0.0202 0.95609 0.25029-0.0617 0.446-2.2617 0.4349-2.2-0.0111-2.9822-0.21589-1.7383-0.45508zm-342.6-2.2927c0-1.375 0.22698-1.9375 0.50439-1.25s0.27741 1.8125 0 2.5-0.50439 0.125-0.50439-1.25zm326.11 0.28242c1.5201-0.22986 3.7701-0.22371 5 0.0136 1.2299 0.23736-0.0138 0.42542-2.7638 0.41792-2.75-8e-3 -3.7563-0.20172-2.2362-0.43157zm-14.514-1.9882c1.2375-0.23836 3.2625-0.23836 4.5 0 1.2375 0.23835 0.225 0.43337-2.25 0.43337s-3.4875-0.19502-2.25-0.43337zm-233.67-1.8776c0.048-1.165 0.28494-1.4019 0.60416-0.60417 0.28887 0.72187 0.25335 1.5844-0.0789 1.9167-0.3323 0.33229-0.56864-0.25834-0.52522-1.3125zm219.67-0.1224c1.2375-0.23836 3.2625-0.23836 4.5 0 1.2375 0.23835 0.225 0.43337-2.25 0.43337s-3.4875-0.19502-2.25-0.43337zm-295.59-2.2943c0-1.375 0.22698-1.9375 0.50439-1.25s0.27741 1.8125 0 2.5-0.50439 0.125-0.50439-1.25zm283.6 0.29274c1.2439-0.23919 3.0439-0.23011 4 0.0202 0.95609 0.25029-0.0617 0.446-2.2617 0.4349-2.2-0.0111-2.9822-0.21589-1.7383-0.45508zm-11.512-1.9821c0.9625-0.25152 2.5375-0.25152 3.5 0 0.9625 0.25153 0.175 0.45733-1.75 0.45733s-2.7125-0.2058-1.75-0.45733zm-198.09-2.3107c0-1.375 0.22698-1.9375 0.50439-1.25s0.27741 1.8125 0 2.5-0.50439 0.125-0.50439-1.25zm187.09 0.31067c0.9625-0.25152 2.5375-0.25152 3.5 0 0.9625 0.25153 0.175 0.45733-1.75 0.45733s-2.7125-0.2058-1.75-0.45733zm-259.09-2.3107c0-1.375 0.22698-1.9375 0.50439-1.25s0.27741 1.8125 0 2.5-0.50439 0.125-0.50439-1.25zm249.11 0.30701c0.97297-0.25354 2.323-0.23687 3 0.0371 0.67703 0.27393-0.11903 0.48137-1.769 0.46099-1.65-0.0204-2.2039-0.2445-1.231-0.49804zm-10.019-1.9963c0.9625-0.25152 2.5375-0.25152 3.5 0 0.9625 0.25153 0.175 0.45733-1.75 0.45733s-2.7125-0.2058-1.75-0.45733zm-8.5-1.973c0.6875-0.27741 1.8125-0.27741 2.5 0s0.125 0.50439-1.25 0.50439-1.9375-0.22698-1.25-0.50439zm-228.59-2.3377c0-1.375 0.22698-1.9375 0.50439-1.25s0.27741 1.8125 0 2.5-0.50439 0.125-0.50439-1.25zm67.921 0.41667c0.048-1.165 0.28494-1.4019 0.60416-0.60417 0.28887 0.72187 0.25335 1.5844-0.0789 1.9167-0.3323 0.33229-0.56864-0.25834-0.52522-1.3125zm151.92 0.58333c0-0.55 0.70156-1 1.559-1s1.2809 0.45 0.94098 1-1.0415 1-1.559 1-0.94098-0.45-0.94098-1zm-8-2c0-0.55 0.70156-1 1.559-1s1.2809 0.45 0.94098 1-1.0415 1-1.559 1-0.94098-0.45-0.94098-1zm-8-2c0-0.55 0.675-1 1.5-1s1.5 0.45 1.5 1-0.675 1-1.5 1-1.5-0.45-1.5-1zm-201.92-2.5833c0.048-1.165 0.28494-1.4019 0.60416-0.60417 0.28887 0.72187 0.25335 1.5844-0.0789 1.9167-0.3323 0.33229-0.56864-0.25834-0.52522-1.3125zm194.92 0.58333c0-0.55 0.42344-1 0.94098-1s1.2191 0.45 1.559 1-0.0835 1-0.94098 1c-0.85746 0-1.559-0.45-1.559-1zm-131-1.441c0-0.85746 0.45-1.559 1-1.559s1 0.42344 1 0.94098-0.45 1.2191-1 1.559-1-0.0835-1-0.94098zm124.51-0.57533c0.34546-0.55897 1.047-0.75742 1.559-0.44098 1.387 0.85723 1.1284 1.4573-0.62812 1.4573-0.85746 0-1.2764-0.45734-0.9309-1.0163zm-6.6976-1.6668c0.72187-0.28887 1.5844-0.25335 1.9167 0.0789 0.33229 0.33229-0.25834 0.56864-1.3125 0.52522-1.165-0.048-1.4019-0.28494-0.60417-0.60416zm-7.0625-1.9792c0.6875-0.27741 1.8125-0.27741 2.5 0s0.125 0.50439-1.25 0.50439-1.9375-0.22698-1.25-0.50439zm-5.9375-2.0208c0.72187-0.28887 1.5844-0.25335 1.9167 0.0789 0.33229 0.33229-0.25834 0.56864-1.3125 0.52522-1.165-0.048-1.4019-0.28494-0.60417-0.60416zm-106.81-1.7579c0-0.85746 0.45-1.559 1-1.559s1 0.42344 1 0.94098-0.45 1.2191-1 1.559-1-0.0835-1-0.94098zm100.81-0.24213c0.72187-0.28887 1.5844-0.25335 1.9167 0.0789 0.33229 0.33229-0.25834 0.56864-1.3125 0.52522-1.165-0.048-1.4019-0.28494-0.60417-0.60416zm-158.73-1.9002c0.048-1.165 0.28494-1.4019 0.60416-0.60417 0.28887 0.72187 0.25335 1.5844-0.0789 1.9167-0.3323 0.33229-0.56864-0.25834-0.52522-1.3125zm152.73-0.0998c0.72187-0.28887 1.5844-0.25335 1.9167 0.0789 0.33229 0.33229-0.25834 0.56864-1.3125 0.52522-1.165-0.048-1.4019-0.28494-0.60417-0.60416zm-5-2c0.72187-0.28887 1.5844-0.25335 1.9167 0.0789 0.33229 0.33229-0.25834 0.56864-1.3125 0.52522-1.165-0.048-1.4019-0.28494-0.60417-0.60416zm-6-2c0.72187-0.28887 1.5844-0.25335 1.9167 0.0789 0.33229 0.33229-0.25834 0.56864-1.3125 0.52522-1.165-0.048-1.4019-0.28494-0.60417-0.60416zm-85.812-1.8169c0-0.825 0.45-1.5 1-1.5s1 0.675 1 1.5-0.45 1.5-1 1.5-1-0.675-1-1.5zm80.812-0.18311c0.72187-0.28887 1.5844-0.25335 1.9167 0.0789 0.33229 0.33229-0.25834 0.56864-1.3125 0.52522-1.165-0.048-1.4019-0.28494-0.60417-0.60416zm-5-2c0.72187-0.28887 1.5844-0.25335 1.9167 0.0789 0.33229 0.33229-0.25834 0.56864-1.3125 0.52522-1.165-0.048-1.4019-0.28494-0.60417-0.60416zm-5-2c0.72187-0.28887 1.5844-0.25335 1.9167 0.0789 0.33229 0.33229-0.25834 0.56864-1.3125 0.52522-1.165-0.048-1.4019-0.28494-0.60417-0.60416zm-72.083-2.9211c-0.40105-0.40104-0.72917-1.4192-0.72917-2.2625 0-1.1256 0.29583-1.2375 1.1125-0.42083 0.61187 0.61187 0.94 1.63 0.72917 2.2625-0.21084 0.6325-0.71146 0.82187-1.1125 0.42083zm-49.229-1.3958c0.33992-0.55 0.81648-1 1.059-1s0.44098 0.45 0.44098 1-0.47656 1-1.059 1-0.7809-0.45-0.44098-1zm112.31 0.31689c0.72187-0.28887 1.5844-0.25335 1.9167 0.0789 0.33229 0.33229-0.25834 0.56864-1.3125 0.52522-1.165-0.048-1.4019-0.28494-0.60417-0.60416zm-110.31-4.3169c0.33992-0.55 0.81648-1 1.059-1s0.44098 0.45 0.44098 1-0.47656 1-1.059 1-0.7809-0.45-0.44098-1zm45.197-3.3931c-0.4092-1.0412-0.5084-2.1287-0.22046-2.4167 0.91206-0.91206 1.7146 0.58256 1.3324 2.4815-0.35024 1.7403-0.40373 1.7372-1.1119-0.0649zm-41.697-5.6069c0-0.55 0.47656-1 1.059-1s0.7809 0.45 0.44098 1-0.81648 1-1.059 1-0.44098-0.45-0.44098-1zm80-0.059c0-0.58246 0.45-0.7809 1-0.44098s1 0.81648 1 1.059-0.45 0.44098-1 0.44098-1-0.47656-1-1.059zm-40.303-2.3341c-0.4092-1.0412-0.5084-2.1287-0.22046-2.4167 0.91206-0.91206 1.7146 0.58256 1.3324 2.4815-0.35024 1.7403-0.40373 1.7372-1.1119-0.0649zm-37.697-1.6069c0-0.55 0.47656-1 1.059-1s0.7809 0.45 0.44098 1-0.81648 1-1.059 1-0.44098-0.45-0.44098-1zm36.158-7c0-1.375 0.22698-1.9375 0.50439-1.25s0.27741 1.8125 0 2.5-0.50439 0.125-0.50439-1.25zm-2-8c0-1.375 0.22698-1.9375 0.50439-1.25s0.27741 1.8125 0 2.5-0.50439 0.125-0.50439-1.25zm-2-7c0-1.375 0.22698-1.9375 0.50439-1.25s0.27741 1.8125 0 2.5-0.50439 0.125-0.50439-1.25zm-2.0789-5.5833c0.048-1.165 0.28494-1.4019 0.60416-0.60417 0.28887 0.72187 0.25335 1.5844-0.0789 1.9167-0.3323 0.33229-0.56864-0.25834-0.52522-1.3125zm6.921-5.4757c0-0.58246 0.45-0.7809 1-0.44098s1 0.81648 1 1.059-0.45 0.44098-1 0.44098-1-0.47656-1-1.059zm-2-3.941c0-0.55 0.45-1 1-1s1 0.45 1 1-0.45 1-1 1-1-0.45-1-1zm-2-10.941c0-3.2675 0.45-6.2191 1-6.559 0.62784-0.38803 1 1.823 1 5.941 0 3.706-0.43497 6.559-1 6.559-0.55445 0-1-2.647-1-5.941zm2-11.5c0-0.85746 0.45-1.559 1-1.559s1 0.42344 1 0.94098-0.45 1.2191-1 1.559-1-0.0835-1-0.94098zm547.81-28.242c0.72187-0.28887 1.5844-0.25335 1.9167 0.0789 0.33229 0.33229-0.25834 0.56864-1.3125 0.52522-1.165-0.048-1.4019-0.28494-0.60417-0.60416zm13-2c0.72187-0.28887 1.5844-0.25335 1.9167 0.0789 0.33229 0.33229-0.25834 0.56864-1.3125 0.52522-1.165-0.048-1.4019-0.28494-0.60417-0.60416zm83 0c0.72187-0.28887 1.5844-0.25335 1.9167 0.0789 0.33229 0.33229-0.25834 0.56864-1.3125 0.52522-1.165-0.048-1.4019-0.28494-0.60417-0.60416zm-63.562-2.0062c0.9625-0.25152 2.5375-0.25152 3.5 0 0.9625 0.25153 0.175 0.45733-1.75 0.45733s-2.7125-0.2058-1.75-0.45733zm41 0c0.9625-0.25152 2.5375-0.25152 3.5 0 0.9625 0.25153 0.175 0.45733-1.75 0.45733s-2.7125-0.2058-1.75-0.45733zm99.899-8.9145c-0.74298-0.84027-1.1527-1.7259-0.91054-1.9681s1.2573 0.46242 2.2559 1.5658 1.4083 1.989 0.91054 1.9681c-0.49775-0.0209-1.5129-0.72552-2.2559-1.5658zm-14.631-16.378c-2.1384-2.1899-3.6922-4.1472-3.4529-4.3496 0.23926-0.20234 2.358 1.5894 4.7083 3.9816 2.3503 2.3922 3.9041 4.3495 3.453 4.3495-0.45118 0-2.5699-1.7917-4.7083-3.9816zm-13.368-13.718c-1.2928-1.3377-2.1571-2.6257-1.9206-2.8622 0.23647-0.23646 1.4835 0.69152 2.7712 2.0622s2.152 2.6586 1.9206 2.8622c-0.23134 0.20353-1.4784-0.72445-2.7712-2.0622zm-136.34-91.983c0.72187-0.28887 1.5844-0.25335 1.9167 0.0789 0.33229 0.33229-0.25834 0.56864-1.3125 0.52522-1.165-0.048-1.4019-0.28494-0.60417-0.60416zm-24.312-9.3169c-0.33992-0.55-0.14148-1 0.44098-1s1.059 0.45 1.059 1-0.19844 1-0.44098 1-0.7191-0.45-1.059-1zm-11.5-4c0-0.55 0.45-1 1-1s1 0.45 1 1-0.45 1-1 1-1-0.45-1-1zm-6-2.059c0-0.58246 0.45-0.7809 1-0.44098s1 0.81648 1 1.059-0.45 0.44098-1 0.44098-1-0.47656-1-1.059zm-27.188-7.6241c0.72187-0.28887 1.5844-0.25335 1.9167 0.0789 0.33229 0.33229-0.25834 0.56864-1.3125 0.52522-1.165-0.048-1.4019-0.28494-0.60417-0.60416zm-216-2c0.72187-0.28887 1.5844-0.25335 1.9167 0.0789 0.33229 0.33229-0.25834 0.56864-1.3125 0.52522-1.165-0.048-1.4019-0.28494-0.60417-0.60416zm208 0c0.72187-0.28887 1.5844-0.25335 1.9167 0.0789 0.33229 0.33229-0.25834 0.56864-1.3125 0.52522-1.165-0.048-1.4019-0.28494-0.60417-0.60416zm-199-2c0.72187-0.28887 1.5844-0.25335 1.9167 0.0789 0.33229 0.33229-0.25834 0.56864-1.3125 0.52522-1.165-0.048-1.4019-0.28494-0.60417-0.60416zm189.94 0.0208c0.6875-0.27741 1.8125-0.27741 2.5 0s0.125 0.50439-1.25 0.50439-1.9375-0.22698-1.25-0.50439zm-181-2c0.6875-0.27741 1.8125-0.27741 2.5 0s0.125 0.50439-1.25 0.50439-1.9375-0.22698-1.25-0.50439zm171 0c0.6875-0.27741 1.8125-0.27741 2.5 0s0.125 0.50439-1.25 0.50439-1.9375-0.22698-1.25-0.50439zm-159-2c0.6875-0.27741 1.8125-0.27741 2.5 0s0.125 0.50439-1.25 0.50439-1.9375-0.22698-1.25-0.50439zm147.5-0.0271c0.9625-0.25152 2.5375-0.25152 3.5 0 0.9625 0.25153 0.175 0.45733-1.75 0.45733s-2.7125-0.2058-1.75-0.45733zm-135-2c0.9625-0.25152 2.5375-0.25152 3.5 0 0.9625 0.25153 0.175 0.45733-1.75 0.45733s-2.7125-0.2058-1.75-0.45733zm121.51-0.0179c1.2439-0.23919 3.0439-0.23011 4 0.0202 0.95609 0.25029-0.0617 0.446-2.2617 0.4349-2.2-0.0111-2.9822-0.21589-1.7383-0.45508zm-104.5-2.0103c1.5201-0.22986 3.7701-0.22371 5 0.0136 1.2299 0.23736-0.0137 0.42542-2.7638 0.41792-2.75-8e-3 -3.7563-0.20172-2.2362-0.43157zm86.486 0.0119c1.2375-0.23836 3.2625-0.23836 4.5 0 1.2375 0.23835 0.225 0.43337-2.25 0.43337s-3.4875-0.19502-2.25-0.43337zm-50.446-2.041c5.9424-0.17711 15.392-0.17644 21 1e-3 5.6076 0.17792 0.74565 0.32282-10.804 0.322s-16.138-0.14638-10.196-0.32348z" fill="#3cb2e1"/>
  <path d="m574.4 1124.8c-30.275-2.3808-40.996-3.7012-69-8.499-25.249-4.3257-58.65-13.17-83-21.979-6.325-2.288-12.519-4.3925-13.765-4.6767-1.2456-0.2841-2.5097-0.9129-2.809-1.3972-0.29934-0.4843-1.1976-0.8806-1.9961-0.8806-0.79853 0-3.5845-0.9448-6.191-2.0997-2.6065-1.1548-5.6391-2.4478-6.7391-2.8733-6.63-2.5646-45.156-21.32-54.5-26.532-50.886-28.382-100.17-67.221-135.94-107.12-37.196-41.499-62.273-84.3-73.005-124.6-2.8093-10.55-2.7086-15.21 0.39571-18.314 4.6631-4.6632 12.092-2.9311 35.545 8.287 24.224 11.587 31.578 15.064 39.5 18.674 4.4 2.0053 8.7814 4.0821 9.7364 4.6152 3.8418 2.1446 3.4356 0.56764-2.1333-8.2807-14.125-22.442-26.954-47.412-35.58-69.25-5.0102-12.684-5.116-12.953-8.4161-21.383-1.159-2.9608-2.1073-6.0044-2.1073-6.7636s-0.40378-2.1616-0.89728-3.1166c-0.49351-0.95504-1.8979-5.1114-3.1208-9.2364s-2.567-8.625-2.9867-10c-1.1598-3.7994-2.7436-9.9439-3.9951-15.5-0.61945-2.75-1.5143-6.575-1.9886-8.5-0.81874-3.3233-1.6683-7.6614-4.0638-20.75-2.4-13.113-2.2702-12.775-4.7727-12.425-2.8476 0.39897-19.029-1.4985-25.175-2.9522-30.823-7.29-41.71-23.508-48.51-72.262-4.3487-31.179-2.0284-78.8 5.4626-112.11 3.9395-17.518 4.1462-18.334 9.1155-36 16.663-59.237 52.131-128.98 90.434-177.82 16.645-21.227 20.071-25.156 42.572-48.835 7.5165-7.9098 24.929-23.916 35.935-33.032 37.263-30.865 75.183-54.622 119.27-74.721 3.7263-1.6989 6.9937-3.0889 7.2609-3.0889s2.6184-0.94485 5.225-2.0997c2.6065-1.1548 5.7516-2.5048 6.9891-3s3.2625-1.3065 4.5-1.8029 4.725-1.8026 7.75-2.9028c3.025-1.1002 7.3-2.6644 9.5-3.4761 10.212-3.7678 43.205-13.265 55-15.832 2.75-0.59853 6.8-1.494 9-1.99 11.886-2.6796 29.524-5.5731 55.5-9.1049 13.337-1.8134 101.6-1.8014 115.5 0.01569 15.628 2.0432 23.525 3.1627 29.75 4.218 19.045 3.2282 18.661 3.1548 31 5.9308 24.849 5.5905 70.115 19.147 76.986 23.056 0.95504 0.54331 2.1974 0.98784 2.7609 0.98784s3.1571 0.94485 5.7636 2.0997c2.6065 1.1548 5.6391 2.4589 6.7391 2.898 15.247 6.0865 46.926 21.695 63.107 31.094 4.8911 2.841 10.351 5.9974 12.133 7.0142 6.9934 3.9908 34.373 22.699 45.507 31.094 20.279 15.291 35.632 28.679 54.813 47.799 19.728 19.665 28.349 29.521 41.989 48.001 8.6533 11.724 10.094 13.841 18.379 27 7.2992 11.593 21.036 40.291 25.122 52.483 7.4626 22.266 8.2276 28.831 3.8677 33.191-2.3306 2.3306-3.0952 2.5223-7.8373 1.9649-7.0679-0.83069-11.801-2.8435-52.58-22.361-15.426-7.3831-20.169-9.4419-20.648-8.9629-0.23562 0.23563 1.3157 3.0737 3.4474 6.3068s5.6332 9.0284 7.7813 12.878 4.6798 8.35 5.6262 10c1.9498 3.3996 11.746 23.189 14.108 28.5 0.8562 1.925 2.9357 6.5997 4.6211 10.388 1.6855 3.7886 3.0645 7.281 3.0645 7.7609s0.8467 2.7802 1.8816 5.1117c1.0349 2.3315 2.4303 5.8141 3.1009 7.7391 0.6707 1.925 1.5998 4.4 2.0647 5.5 1.0917 2.5826 6.2987 18.677 7.9267 24.5 0.6919 2.475 1.6037 5.625 2.0261 7 1.1478 3.736 2.742 9.9114 3.9369 15.25 4.2304 18.901 4.7624 21.606 6.0484 30.75 0.6575 4.675 1.539 9.175 1.9588 10 0.5546 1.0897 3.1968 1.6594 9.6597 2.0827 4.8929 0.32049 10.246 0.90838 11.896 1.3064 9.7305 2.3474 12.644 3.3284 18.842 6.3447 7.7875 3.79 16.302 11.687 19.626 18.203 2.8411 5.569 5.5844 14.146 8.4964 26.563 3.4365 14.654 4.4726 21.972 5.9427 41.977 1.0973 14.931 1.0955 21.116-0.01 36.5-1.466 20.391-3.9173 39.418-6.9215 53.724-2.1334 10.159-6.4008 28.086-7.4504 31.299-0.4492 1.375-1.8052 5.875-3.0132 10-17.094 58.369-49.146 121.14-87.828 172-14.508 19.075-38.273 46.2-50.826 58.01-7.7303 7.2728-23.358 21.242-30.857 27.583-12.037 10.178-51.014 38.406-53.031 38.406-0.33451 0-2.4915 1.2958-4.7934 2.8795-9.8946 6.8076-41.374 23.648-58.175 31.12-2.75 1.2232-7.25 3.2214-10 4.4406-4.624 2.0499-10.661 4.4292-27.5 10.838-3.575 1.3607-11.225 3.9086-17 5.662-5.775 1.7535-11.625 3.6056-13 4.1158-8.0522 2.988-40.984 10.612-60.25 13.948-15.614 2.7036-20.295 3.3444-44.25 6.0583-9.5336 1.08-68.035 2.1139-77.5 1.3696zm142.73-645.04c-0.33229-0.33229-1.1948-0.36781-1.9167-0.0789-0.79773 0.31922-0.56078 0.55618 0.60417 0.60416 1.0542 0.0434 1.6448-0.19293 1.3125-0.52522z" fill="#e9f1f8"/>
  <path d="m583.4 1123.8c-69.66-2.6188-141.42-19.557-206-48.622-18.217-8.1992-40.982-20.173-56.5-29.717-3.85-2.3679-10.018-6.1281-13.707-8.3561-8.2621-4.9904-34.818-23.9-44.293-31.539-33.338-26.879-62.283-56.013-84.612-85.162-20.55-26.827-36.971-57.046-46.24-85.094-5.9032-17.863-6.5986-24.916-2.8749-29.156 3.992-4.5461 9.5891-2.5096 63.227 23.005 20.114 9.5678 24.214 11.364 24.741 10.837 0.27366-0.27366-1.4436-3.5563-3.8161-7.2948-20.752-32.7-40.285-74.63-50.869-109.2-6.6821-21.824-13.469-50.997-15.555-66.855-0.80002-6.0842-0.24996-5.8301-14.502-6.6994-22.53-1.3742-40.385-9.6904-48.539-22.608-4.4691-7.0796-10.863-29.75-13.379-47.438-3.9218-27.57-3.9203-52.916 5e-3 -83.5 9.251-72.079 38.27-147.1 83.1-214.83 49.839-75.299 116.98-135.21 196.16-175.06 16.702-8.4042 19.645-9.7753 35.971-16.757 42.023-17.972 99.516-32.291 149.68-37.279 27.061-2.6909 33.952-3.0803 54.5-3.0803 20.566 0 26.438 0.32678 55 3.061 35.418 3.3906 73.512 11.185 110.5 22.611 13.581 4.1952 36.83 12.745 49 18.02 1.925 0.8344 4.4 1.8967 5.5 2.3606 17.507 7.3838 56.111 27.656 68.5 35.972 3.025 2.0304 6.85 4.3863 8.5 5.2353 4.7516 2.4449 26.793 18.102 41 29.124 66.51 51.601 114.9 114.02 134.31 173.25 5.2571 16.044 6.1507 23.882 3.2342 28.369-1.7873 2.7499-10.548 1.5855-21.043-2.797-8.3735-3.4966-42.847-19.793-53.344-25.217-2.1145-1.0925-4.4395-1.9864-5.1667-1.9864s-1.5231-0.5625-1.7686-1.25c-0.24554-0.6875-0.80327-0.91727-1.2394-0.5106s0.696 3.1067 2.5158 6c32.775 52.108 53.892 107.98 64.538 170.75 0.8848 5.2169 2.139 9.8225 2.7872 10.235 0.6481 0.4122 3.6534 0.75643 6.6784 0.76495 6.7775 0.0191 19.014 2.2995 26.548 4.9476 11.307 3.9741 21.673 12.602 25.896 21.555 2.3088 4.8949 7.6823 22.532 8.9915 29.513 7.1921 38.347 7.3148 69.213 0.4493 113-1.1792 7.5204-6.4111 32.058-8.4755 39.75-0.7749 2.8875-2.0648 7.6733-2.8664 10.635-4.1762 15.432-14.105 43.221-22.143 61.976-37.532 87.573-98.537 164.95-172.9 219.29-34.338 25.094-74.246 46.99-115.5 63.371-21.928 8.7072-58.478 19.847-78.5 23.925-2.2 0.4481-7.375 1.5145-11.5 2.3699-35.471 7.355-87.577 11.523-126 10.078zm392.68-311.58c-0.31922-0.79773-0.55618-0.56078-0.60416 0.60417-0.0434 1.0542 0.19293 1.6448 0.52522 1.3125s0.36781-1.1948 0.0789-1.9167zm-281.82-108.17c8.6969-8.2723 30.834-26.94 45.227-38.14 12.021-9.3538 23.871-18.348 27.389-20.789 2.2106-1.5338 6.4942-4.592 9.5192-6.7959 11.103-8.0898 37.879-25.813 51.516-34.099 27.433-16.669 49.908-29.059 50.904-28.063 0.31906 0.31905 0.58011-0.17063 0.58011-1.0882 0-1.5741-15.662-19.769-18.423-21.404-0.7077-0.41882-4.6145-3.7701-8.6817-7.4472-22.853-20.661-52.092-38.693-82.395-50.814-1.375-0.55-3.5125-1.4082-4.75-1.907-20.913-8.4304-49.902-16.057-76.25-20.062-16.222-2.4653-36.892-4.0111-66.5-4.973-54.012-1.7546-73.665-2.7895-97.5-5.134-6.6-0.64921-12.986-1.172-14.192-1.1618-1.3301 0.0113-6.6388 3.9104-13.5 9.9152-56.268 49.246-120.11 94.116-172.56 121.29-3.4404 1.7822-6.5204 3.6692-6.8442 4.1933-0.32391 0.52409 6.5475 8.0147 15.27 16.646 22.438 22.203 43.178 37.425 68.83 50.515 13.367 6.8213 24.106 11.678 25.825 11.678 0.70123 0 1.7025 0.39457 2.225 0.87683 1.0214 0.94276 14.017 5.8131 18.95 7.102 1.65 0.4311 5.025 1.4473 7.5 2.2583 13.132 4.303 35.854 9.446 52.171 11.809 19.638 2.844 35.037 4.0134 65.329 4.9612 46.609 1.4584 98.149 4.3078 99.332 5.4916 0.27553 0.27553 3.8525 0.50097 7.9489 0.50097h7.448z" fill="#c3e2f1"/>
  <path d="m565.4 1043.4c-2.475-0.4608-7.0124-0.8711-10.083-0.9119-3.0708-0.041-8.0208-0.4937-11-1.0066s-9.2418-1.4457-13.917-2.0729c-15.191-2.0382-25.666-4.1824-48.524-9.9325-11.521-2.8983-37.241-10.905-42.476-13.223-1.375-0.6088-3.4-1.4365-4.5-1.8393s-3.35-1.3028-5-2-3.9-1.6004-5-2.0071c-9.0626-3.351-56.779-27.013-58.5-29.009-0.275-0.31899-2.7238-1.9084-5.4418-3.532-21.469-12.825-48.186-32.659-68.123-50.576-18.697-16.802-43.281-43.582-59.554-64.876-7.9981-10.466-14.881-20.57-14.881-21.846 0-0.52547-3.0617-5.8377-6.8037-11.805-32.017-51.055-55.413-113.58-63.743-170.35-0.36317-2.475-1.258-5.85-1.9885-7.5-0.73051-1.65-1.5691-5.25-1.8636-8-5.7444-53.649-3.5814-104.63 6.3528-149.75 0.57525-2.6125 1.5209-6.8875 2.1014-9.5 0.58052-2.6125 1.3052-6.2167 1.6105-8.0093s0.95527-3.5066 1.4445-3.809c0.48923-0.30236 0.88951-1.5037 0.88951-2.6697 0-2.2516 1.6632-8.1093 3.1228-10.998 0.48248-0.95504 0.87724-2.841 0.87724-4.191 0-1.35 0.45-2.7327 1-3.0726s1-1.4976 1-2.5726c0-1.075 0.43973-2.7359 0.97718-3.691s2.1136-5.2369 3.5026-9.5153c5.5109-16.975 11.915-32.349 22.796-54.721 8.9919-18.489 17.341-30 21.76-30 3.2024 0 10.964 11.683 10.964 16.503 0 0.83846 0.39476 2.3059 0.87724 3.2609 1.5726 3.1129 3.1228 8.8207 3.1228 11.498 0 1.441 0.40247 2.8687 0.89437 3.1727 0.4919 0.30401 1.1302 2.2431 1.4186 4.309 0.28831 2.066 1.0354 5.7813 1.6603 8.2563s1.5373 6.3 2.0277 8.5 1.1967 5.35 1.5697 7c4.4298 19.598 14.433 55.78 16.515 59.736 0.50267 0.95504 0.91394 2.5525 0.91394 3.55s0.35814 2.2411 0.79586 2.7636 1.3675 2.75 2.0661 4.95 1.6905 5.0125 2.2041 6.25c0.51365 1.2375 1.3839 3.375 1.9339 4.75s1.5102 3.7375 2.1338 5.25c1.4025 3.4019 2.8911 7.1196 3.9038 9.75 1.4393 3.7384 16.863 34.972 20.302 41.112 4.8114 8.5906 14.694 23.248 23.053 34.192 3.9088 5.1174 7.7318 10.517 8.4955 12 2.0917 4.0607 30.423 31.836 40.111 39.323 10.429 8.0607 27.281 19.342 36 24.1 13.255 7.2333 15.731 8.4719 26.217 13.115 21.742 9.6267 47.769 17.629 73.283 22.531 28.833 5.5399 52.495 7.7106 94 8.6234 26.397 0.58056 52.006 1.8688 72 3.622 7.15 0.62696 17.95 1.3014 24 1.4989 6.05 0.19742 14.825 0.80165 19.5 1.3427 11.077 1.282 23.6 2.866 28 3.5414 1.925 0.29553 6.65 1.0036 10.5 1.5735 6.5971 0.97651 9.622 1.4927 23 3.9251 10.054 1.828 19.658 3.7102 36 7.0554 2.2 0.45033 10.525 2.4585 18.5 4.4627 18.997 4.7742 21.968 5.4983 25.262 6.1588 1.5192 0.30458 3.0083 0.95189 3.309 1.4385 0.30072 0.48658 1.8437 0.8847 3.4287 0.8847s3.1601 0.45 3.5 1 1.6899 1 3 1 2.6601 0.45 3 1 1.6899 1 3 1 2.6601 0.45 3 1 1.6899 1 3 1 2.6601 0.45 3 1 1.4976 1 2.5726 1c1.075 0 2.7359 0.3975 3.691 0.88333s3.0864 1.4383 4.7364 2.1167 3.7814 1.6308 4.7364 2.1167 2.1974 0.88333 2.7609 0.88333 3.1571 0.95236 5.7636 2.1164c2.6065 1.164 6.0891 2.7045 7.7391 3.4232 20.583 8.9666 40.447 20.265 49.918 28.392 18.875 16.197 26.583 28.223 26.582 41.468-1e-3 11.03-5.9342 20.941-30.891 51.601-9.1225 11.207-42.072 45.032-49.9 51.226-2.5898 2.0491-5.8338 4.7636-7.2088 6.0322-8.1464 7.5163-53.206 39.742-55.569 39.742-0.34212 0-1.9727 0.96175-3.6235 2.1372-5.5613 3.96-32.882 17.999-48.807 25.081-2.475 1.1005-5.2814 2.4017-6.2364 2.8915s-2.4175 0.8906-3.25 0.8906-1.5136 0.45-1.5136 1-0.68111 1-1.5136 1-2.4075 0.45-3.5 1-2.8803 1.45-3.9729 2-2.6736 1-3.5136 1-2.421 0.45-3.5136 1-2.8803 1.45-3.9729 2-2.866 1-3.941 1c-1.075 0-2.2327 0.45-2.5726 1s-1.4976 1-2.5726 1c-1.075 0-2.7359 0.4061-3.691 0.9025s-3.7614 1.4477-6.2364 2.114-5.4 1.5733-6.5 2.0156c-2.3652 0.9509-16.889 4.6636-24 6.135-2.75 0.569-6.8 1.4446-9 1.9458-12.361 2.8157-32.791 5.9223-52.5 7.9833-12.388 1.2953-70.187 1.972-76 0.8898zm415.85-224.74c-0.80144-0.9625-2.394-3.775-3.5391-6.25-2.2057-4.7675-3.6879-9.6314-7.3137-24-0.62454-2.475-1.555-5.882-2.0678-7.571s-0.93224-4.25-0.93224-5.691-0.40247-2.8687-0.89437-3.1727c-0.4919-0.30401-1.1669-2.3556-1.5-4.559s-0.87816-5.8091-1.2113-8.0125-1.0081-4.255-1.5-4.559c-0.4919-0.30402-0.89437-1.7318-0.89437-3.1727s-0.41951-4.0019-0.93224-5.691-1.4091-4.871-1.992-7.071c-7.2648-27.42-13.852-48.408-19.303-61.5-0.57244-1.375-1.4306-3.5125-1.907-4.75-0.47641-1.2375-1.3764-3.4875-2-5-0.62358-1.5125-1.4643-3.65-1.8684-4.75s-2.1438-4.8757-3.8662-8.3905c-1.7224-3.5148-3.1316-7.0023-3.1316-7.75 0-0.74775-0.34015-1.3595-0.75589-1.3595s-1.3452-1.4625-2.0655-3.25c-0.72029-1.7875-1.807-4.15-2.415-5.25-0.60796-1.1-2.5441-4.7-4.3026-8-1.7585-3.3-4.1551-7.6986-5.3258-9.7746-2.4951-4.4244-18.162-27.994-19.094-28.725-0.35045-0.275-1.7277-2.075-3.0606-4-1.3329-1.925-3.4792-4.625-4.7696-6-1.2904-1.375-3.1737-4.075-4.1851-6-2.4925-4.7438-24.819-27.062-36.249-36.236-45.405-36.442-99.77-58.516-164.28-66.701-20.574-2.6106-27.249-3.0602-60-4.0415-38.4-1.1505-67.563-2.5991-83-4.1227-5.5-0.54284-17.65-1.4202-27-1.9497-18.016-1.0202-21.985-1.3788-32.75-2.9586-3.7125-0.54484-10.012-1.4688-14-2.0533-17.719-2.5971-27.721-4.4016-55.204-9.9599-19.816-4.0076-28.557-5.9808-31.343-7.0751-1.2634-0.49629-3.3743-0.90235-4.691-0.90235-1.3167 0-2.672-0.45-3.012-1s-1.6953-1-3.012-1c-1.3167 0-3.4276-0.40314-4.691-0.89586s-4.322-1.4366-6.797-2.0975c-2.475-0.66088-5.2814-1.6077-6.2364-2.1041-0.95504-0.4964-2.841-0.90254-4.191-0.90254-1.35 0-2.7327-0.45-3.0726-1s-1.6899-1-3-1-2.6601-0.45-3-1-1.6265-1-2.859-1-2.6685-0.35814-3.191-0.79586-2.75-1.3675-4.95-2.0661c-4.185-1.329-7.8056-2.7638-10.736-4.2547-0.95504-0.48583-2.1974-0.88333-2.7609-0.88333s-2.9321-0.84193-5.2636-1.871c-2.3315-1.029-7.1641-3.1179-10.739-4.6419-10.795-4.602-29.844-14.187-31-15.598-0.275-0.33575-1.8852-1.3198-3.5783-2.1869-5.4984-2.8158-18.767-13.193-25.286-19.776-6.53-6.5943-10.681-12.144-13.033-17.427-0.73485-1.65-1.7336-3.7814-2.2194-4.7364-1.763-3.4657-1.0043-16.199 1.3037-21.88 1.9324-4.7565 7.1023-13.505 8.7952-14.883 0.3378-0.275 1.7111-2.075 3.0518-4 2.7501-3.9488 2.2815-3.347 12.071-15.5 14.845-18.429 30.591-35.034 47.895-50.506 5.225-4.6717 9.725-8.7404 10-9.0415 3.5087-3.8414 32.465-25.57 45-33.767 5.225-3.417 9.9526-6.5441 10.506-6.949 0.55312-0.40498 3.0281-1.8278 5.5-3.1617s4.7193-2.6921 4.9943-3.0181c1.1072-1.3124 37.168-19.61 46-23.341 1.925-0.81316 5.3-2.2527 7.5-3.1991 2.2-0.94632 5.0125-2.1247 6.25-2.6186 5.9484-2.3742 7.4127-2.9662 9.5-3.8411 4.6883-1.965 26.632-9.0201 35.75-11.494 14.404-3.9078 16.117-4.3513 21.25-5.5001 11.374-2.5456 14.836-3.2414 30-6.0279 13.704-2.5183 27.644-3.8668 52.309-5.0601 38.117-1.8442 80.427 1.1899 112.44 8.0632 3.025 0.64945 7.3 1.5569 9.5 2.0166 7.788 1.6272 13.989 3.2231 29.5 7.5913 7.1338 2.0091 28.774 9.1336 32 10.535 1.375 0.59741 3.4 1.4158 4.5 1.8186 15.511 5.6803 50.326 22.668 67.353 32.864 13.453 8.0561 36.923 24.421 50.147 34.967 17.776 14.175 20.648 16.765 39.526 35.643 17.269 17.269 21.267 21.612 31.327 34.026 9.6164 11.867 9.3096 11.475 12.113 15.5 1.3407 1.925 2.712 3.725 3.0473 4 1.4252 1.1687 12.987 18.778 12.987 19.78 0 0.60458 2.6074 5.2889 5.7942 10.41 29.323 47.117 51.561 105.53 60.7 159.44 1.3861 8.1774 3.1546 16.218 3.93 17.868 1.3946 2.9676 1.7658 6.1353 3.5741 30.5 1.196 16.113 1.1896 49.02-0.013 65-1.6462 21.883-3.6184 36.178-8.0361 58.25-0.578 2.8875-1.3005 6.9403-1.6057 9.0063-0.3051 2.066-0.9572 4.005-1.4491 4.309-0.4919 0.30402-0.8944 2.0746-0.8944 3.9347s-0.45 3.6601-1 4-1 1.9149-1 3.5-0.45 3.1601-1 3.5-1 1.9149-1 3.5-0.45 3.1601-1 3.5-1 1.9149-1 3.5-0.45 3.1601-1 3.5-1 1.6899-1 3-0.45 2.6601-1 3-1 1.6899-1 3-0.45 2.6601-1 3-1 1.4315-1 2.4257c0 1.564-0.9025 4.1922-5.0049 14.574-0.4347 1.1-2.2493 5.825-4.0325 10.5-5.1151 13.41-6.9116 17.429-15.714 35.154-9.6371 19.407-15.37 26.846-20.686 26.846-1.8757 0-3.8691-0.74074-4.7095-1.75z" fill="#b0d9ef"/>
  <path d="m577.4 1043.3c-26.78-1.2926-54.187-4.8619-77-10.028-10.49-2.3755-14.04-3.275-24-6.0816-47.195-13.298-87.415-31.626-128.5-58.555-13.332-8.7382-37.407-26.496-42.632-31.445-0.75342-0.71366-6.5445-5.8684-12.869-11.455-23.153-20.452-46.455-46.578-66.249-74.279-3.7125-5.1955-6.75-10.065-6.75-10.822s-1.0791-2.8079-2.398-4.5587c-5.3056-7.0429-19.345-31.95-27.649-49.05-18.748-38.609-31.667-77.468-38.441-115.63-1.4156-7.975-3.2238-16.75-4.0181-19.5-1.7646-6.109-3.2297-18.313-4.502-37.5-3.7067-55.899 4.0302-116.01 21.816-169.5 5.7538-17.304 7.8089-22.935 11.496-31.5 0.82867-1.925 2.2451-5.3 3.1477-7.5 3.7451-9.1286 5.353-12.646 11.805-25.823 10.354-21.145 16.92-29.709 21.632-28.213 6.2096 1.9708 9.3273 11.218 21.253 63.036 1.1392 4.95 2.9329 12.15 3.9859 16 3.4834 12.737 3.8164 13.943 5.9344 21.5 1.1561 4.125 2.7937 9.525 3.6392 12 0.84548 2.475 1.8936 5.85 2.3292 7.5s2.6521 8.175 4.9256 14.5c13.489 37.527 32.694 73.335 54.17 101 4.0561 5.225 7.9754 10.667 8.7095 12.093 1.8962 3.6832 27.054 28.229 37.165 36.261 10.856 8.6237 26.019 18.897 37.5 25.406 9.4711 5.3698 31.942 16.24 33.572 16.24 0.5255 0 1.7368 0.3975 2.6919 0.88333 2.9308 1.4909 6.5515 2.9257 10.736 4.2547 2.2 0.69863 4.4275 1.6284 4.95 2.0661s1.7661 0.79586 2.7636 0.79586 2.595 0.40614 3.55 0.90254c0.95504 0.49639 3.7614 1.4486 6.2364 2.116s5.625 1.5591 7 1.9815c2.4551 0.75427 6.5617 1.8426 14.5 3.8429 3.7358 0.94135 9.7282 2.1682 20.5 4.1969 22.387 4.2164 53.533 6.9648 78.769 6.951 18.665-0.0103 44.187 1.2443 82.157 4.0385 13.984 1.0291 25.775 1.6555 26.201 1.392 1.0948-0.67662 28.455 2.4362 49.873 5.674 26.252 3.9687 57.102 9.8546 73 13.928 5.5032 1.4099 16.159 4.0739 20 5.0001 16.26 3.9207 42.816 12.499 62.5 20.188 14.368 5.6131 39.686 18.155 49 24.274 33.109 21.75 45.245 44.145 34.848 64.304-5.0176 9.729-23.889 34.367-39.212 51.194-56.906 62.493-130.57 108.1-211.64 131.03-6.1975 1.7528-19.144 5.0712-23 5.8952-32.825 7.0149-51.699 9.4991-84.305 11.097-11.168 0.5471-20.843 0.9281-21.5 0.8466-0.65736-0.082-8.6202-0.5067-17.695-0.9447zm404.8-224.66c-4.492-5.215-6.9862-12.833-13.775-42.073-4.6291-19.938-9.8255-40.949-12.101-48.927-1.2453-4.3669-2.8578-10.094-3.8712-13.75-1.3578-4.8983-8.7045-26.456-11.587-34-1.471-3.85-3.2652-8.575-3.9872-10.5-9.4914-25.308-31.555-64.073-48.824-85.779-3.3867-4.2571-6.7744-8.9327-7.5283-10.39-1.7862-3.4536-28.613-29.818-37.629-36.981-20.375-16.187-47.32-32.306-66.801-39.962-2.8595-1.1238-6.5492-2.6305-8.1992-3.3481s-4.575-1.8529-6.5-2.5229c-1.925-0.66999-4.4-1.6001-5.5-2.0669-2.6779-1.1364-11.221-3.9755-15.25-5.0681-1.7875-0.48473-4.9375-1.3612-7-1.9478-9.8016-2.7876-24.756-6.1917-34.75-7.9105-22.066-3.7949-32.014-4.7739-61-6.0033-69.978-2.968-96.905-4.2776-106-5.1554-5.5-0.5308-14.5-1.0968-20-1.2578-13.362-0.39114-22.938-1.5067-57.246-6.6682-13.304-2.0016-32.602-5.5293-44.254-8.0895-37.31-8.198-49.848-11.518-77.5-20.522-12.459-4.0568-27.337-9.6125-37.5-14.002-9.5855-4.1404-32.042-15.994-39.304-20.747-17.719-11.596-30.324-24.833-34.831-36.577-3.2632-8.5029-2.9148-18.016 0.95647-26.115 6.6063-13.821 29.33-41.458 55.179-67.109 30.533-30.3 52.24-47.332 86.738-68.061 70.806-42.544 151.08-64.65 234.96-64.702 39.334-0.0247 78.151 4.806 113.23 14.091 6.3676 1.6856 12.928 3.4055 14.578 3.8221 6.1314 1.548 33.685 11.171 44.654 15.596 15.122 6.0995 44.608 20.744 58.846 29.227 35.73 21.288 66.09 45.26 95.5 75.408 21.261 21.795 29.62 31.911 50.056 60.577 2.4444 3.4288 4.4443 6.6793 4.4443 7.2233s3.8643 7.4136 8.5873 15.266c13.557 22.539 28.492 53.626 37.606 78.277 7.5721 20.48 15.681 49.603 19.213 69 0.9012 4.95 2.0785 11.172 2.6161 13.826s0.9775 5.9328 0.9775 7.2852 0.6196 3.4556 1.3769 4.6737c2.5463 4.0961 4.1232 28.673 4.1202 64.215 0 38.544-0.8662 48.549-7.1151 82.5-4.0215 21.849-14.072 58.972-19.357 71.5-0.4641 1.1-2.878 7.2111-5.3644 13.58-6.8005 17.42-8.3634 20.921-17.824 39.92-11.425 22.944-18.103 29.975-23.034 24.25z" fill="#90cef0"/>
  <path d="m566.9 1041.9c-32.351-2.5415-51.038-5.4817-80.5-12.666-50.502-12.315-105.71-37.852-151.81-70.223-32.858-23.072-67.494-55.931-93.641-88.839-8.2397-10.37-19.5-25.938-19.528-26.999-0.0274-1.0206 2.6215-0.9461 4.7434 0.13333 3.1998 1.6278 9.3262 4.0872 15.236 6.1167 1.925 0.66101 4.4 1.5876 5.5 2.059 4.0049 1.7164 18.138 6.23 23.5 7.5051 3.025 0.71936 7.3 1.8207 9.5 2.4473s5.9125 1.5555 8.25 2.064 6.3875 1.3952 9 1.9705c24.347 5.3611 43.62 7.3335 71.75 7.3433 31.951 0.0111 59.576-3.5947 86.75-11.323 2.0625-0.58657 5.2125-1.4465 7-1.911 7.208-1.8731 18.307-5.5231 19.2-6.3139 0.5225-0.46283 1.895-0.84151 3.05-0.84151s2.5275-0.38233 3.05-0.84962 2.975-1.6292 5.45-2.5821c30-11.55 68.556-33.29 98.186-55.363 29.235-21.778 44.347-34.972 84.741-73.985l8.5724-8.2792 8 0.57026c4.4 0.31364 10.925 0.98623 14.5 1.4946 3.575 0.5084 10.1 1.4167 14.5 2.0184 13.562 1.8546 27.99 4.1405 47 7.4461 17.302 3.0086 52.124 11.003 72 16.53 12.757 3.5472 41.006 13.032 49 16.452 39.438 16.873 57.95 27.897 72.5 43.173 8.4955 8.9196 13.268 17.117 15.063 25.874 2.1591 10.535-1.4844 18.898-17.427 40-44.111 58.386-108.61 109.76-172.64 137.49-4.125 1.7867-9.411 4.1063-11.747 5.1546-16.933 7.5996-47.325 17.577-69.253 22.735-27.501 6.469-45.917 9.2144-78 11.628-22.827 1.7175-39.38 1.7101-61.5-0.028zm415.19-224.26c-1.8132-2.0036-4.5371-8.056-5.8341-12.963-0.47245-1.7875-1.3389-4.9375-1.9255-7-1.346-4.7329-2.5234-9.3887-3.9829-15.75-1.3567-5.9131-2.7159-11.667-3.898-16.5-0.47079-1.925-1.3722-5.75-2.0032-8.5-1.9152-8.3475-3.2554-13.534-9.0436-35-4.389-16.277-14.95-46.583-20.734-59.5-14.814-33.082-30.881-60.441-47.276-80.505-3.2976-4.0356-5.9957-7.5438-5.9957-7.7958 0-0.64865 19.132-9.948 36.247-17.619 9.546-4.2783 34.527-13.755 44.753-16.978 5.775-1.8199 11.281-3.7124 12.236-4.2056 0.95504-0.49318 2.841-0.89669 4.191-0.89669 1.35 0 2.7019-0.40028 3.0043-0.88951 0.30237-0.48923 2.0164-1.1317 3.809-1.4278 1.7926-0.29602 5.2843-1.0484 7.7593-1.672s5.85-1.3618 7.5-1.6404 3.9-0.89308 5-1.3654c1.1-0.47236 4.25-1.1538 7-1.5144 2.75-0.36058 8.15-1.0803 12-1.5993 14.222-1.9174 24.016-2.1787 25.265-0.67415 2.9484 3.5526 5.5548 54.785 4.1982 82.52-0.8967 18.331-2.03 31.151-3.9129 44.263-1.3121 9.1367-4.3603 25.64-6.0031 32.5-0.5268 2.2-1.2479 5.35-1.6024 7-0.5901 2.7462-2.7536 10.843-5.6114 21-11.278 40.086-37.899 100.53-47.119 106.99-2.8817 2.0184-6.044 1.9103-8.021-0.27427zm-834.66-167.68c-0.51553-0.62118-1.7134-7.4088-2.662-15.084-2.2069-17.855-2.5492-77.316-0.53808-93.454 2.9812-23.923 5.286-38.236 8.1316-50.5 3.0294-13.056 5.2967-22.313 6.0006-24.5 0.44257-1.375 1.379-4.525 2.081-7 4.1094-14.488 13.975-42.472 18.685-53 1.1073-2.475 3.278-7.425 4.8237-11 5.3773-12.437 16.404-33.111 20.002-37.502 5.6957-6.9509 9.6099-7.1704 13.141-0.73686 3.1563 5.7512 5.5757 14.146 12.245 42.489 14.337 60.926 24.021 90.854 40.668 125.69 11.375 23.8 22.504 42.099 37.466 61.602 4.3583 5.6812 7.9 10.697 7.8706 11.146-0.0588 0.89545-24.082 12.663-38.196 18.71-14.512 6.2174-13.584 5.8454-25.25 10.118-5.5 2.0141-12.198 4.5231-14.883 5.5755-2.6858 1.0524-5.6968 1.9135-6.691 1.9135-0.99419 0-2.0857 0.45-2.4257 1s-1.6899 1-3 1-2.6601 0.45-3 1-1.9149 1-3.5 1-3.128 0.39812-3.4287 0.8847c-0.30073 0.48659-1.7898 1.1339-3.309 1.4385-2.7382 0.54894-8.0534 1.8254-15.762 3.7852-17.815 4.5292-46.545 7.7474-48.469 5.4294zm348.97-190.48c-2.475-0.45293-9-1.3619-14.5-2.02-5.5-0.65807-12.475-1.6056-15.5-2.1056-3.025-0.49997-12.501-2.0298-21.058-3.3997-25.982-4.1593-70.19-13.585-81.942-17.471-1.375-0.4547-4.3-1.3252-6.5-1.9343-54.785-15.17-101.73-38.019-122.31-59.525-13.847-14.474-18.333-29.351-12.861-42.651 2.6175-6.3621 18.01-27.328 31.897-43.448 11.784-13.678 37.992-39.62 51.271-50.751 74.079-62.096 161.1-97.623 259.19-105.82 18.674-1.5598 68.155-0.6975 86.31 1.5041 95.292 11.556 176.97 47.617 248.5 109.71 10.984 9.5354 36.689 35.336 46.177 46.349 11.466 13.309 34.323 43.871 34.323 45.893 0 0.33384-0.9 0.60698-2 0.60698s-2-0.45-2-1-0.68111-1-1.5136-1-2.295-0.3975-3.25-0.88333c-1.8354-0.9337-6.2347-2.8061-9.9864-4.2505-1.2375-0.47641-3.2625-1.299-4.5-1.828-3.2848-1.4041-23.323-7.9399-29.739-9.6998-3.0311-0.83143-7.086-1.9526-9.011-2.4915-24.828-6.9507-46.288-10.334-75-11.823-32.096-1.6649-66.421 1.2825-93 7.9858-2.475 0.62419-5.9667 1.3771-7.7593 1.6731-1.7926 0.29603-3.5066 0.93852-3.809 1.4278-0.30236 0.48923-1.627 0.88951-2.9437 0.88951-1.3167 0-3.4276 0.41318-4.691 0.91818s-6.347 2.1542-11.297 3.6648c-4.95 1.5106-9.4275 3.1224-9.95 3.5818-0.5225 0.45938-1.5399 0.83523-2.2609 0.83523-0.72099 0-3.4435 0.94485-6.05 2.0997-2.6065 1.1548-5.6391 2.4478-6.7391 2.8733-10.53 4.0733-39.142 18.658-52.88 26.954-39.092 23.609-71.736 49.549-112.53 89.426l-16.415 16.043-5.5854 0.2414c-3.072 0.13277-7.6105-0.12918-10.085-0.58212z" fill="#74c3e8"/>
  <path d="m568.9 1041.3c-16.249-0.928-33.662-2.9693-50-5.8614-13.418-2.3754-32.085-6.647-44-10.069-2.2-0.6319-5.243-1.3887-6.7622-1.6818s-3.0083-0.9311-3.309-1.4177c-0.30072-0.4866-1.4263-0.8847-2.5013-0.8847-1.075 0-2.7359-0.3948-3.691-0.8772-0.95504-0.4825-3.5364-1.4123-5.7364-2.0661-2.2-0.6539-4.9-1.5653-6-2.0253s-4.7-1.8323-8-3.0494c-26.893-9.919-57.411-24.746-78.935-38.349-19.117-12.083-43.109-29.449-55.682-40.304-27.371-23.632-49.12-46.819-69.856-74.476-5.5061-7.3438-10.51-13.944-11.12-14.668-1.8921-2.2455-0.3111-2.3798 4.2332-0.35936 2.3979 1.0661 5.9349 2.4871 7.8599 3.1577 4.3152 1.5033 7.9523 2.9722 10.236 4.1341 0.95504 0.48583 2.616 0.88333 3.691 0.88333 1.075 0 2.2327 0.45 2.5726 1s1.6899 1 3 1 2.628 0.39812 2.9287 0.8847c0.30073 0.48659 1.7898 1.1298 3.309 1.4294s5.4622 1.2852 8.7622 2.1903c3.3 0.90507 7.6875 2.0618 9.75 2.5706s5.6625 1.3996 8 1.9797c27.66 6.8641 49.189 9.3426 81.25 9.3536 28.188 0.01 50.018-2.2492 71-7.347 2.2-0.5345 5.35-1.257 7-1.6055s5.925-1.4686 9.5-2.489 9.2-2.6004 12.5-3.5111 6.9-2.0153 8-2.4548 3.575-1.3399 5.5-2.0009 4.625-1.6666 6-2.2347c3.7845-1.5636 7.277-2.9504 9.5-3.7724 8.0931-2.9925 38.967-18.322 49.833-24.743 4.8865-2.8875 9.0342-5.25 9.2172-5.25 0.79695 0 27.723-18.244 35.45-24.019 27.692-20.698 45.397-36.149 82.199-71.733 9.6197-9.3016 12.108-11.216 14-10.774 1.2658 0.29553 4.3264 0.74037 6.8014 0.98853 22.13 2.2189 44.728 5.4359 67 9.538 2.475 0.45586 7.2 1.3194 10.5 1.9189 8.0022 1.4538 13.031 2.5105 29.25 6.1458 2.6125 0.58557 6.4403 1.3081 8.5063 1.6056 2.066 0.29752 4.005 0.94342 4.309 1.4353 0.30402 0.4919 2.0746 0.89437 3.9347 0.89437s3.6294 0.40028 3.9317 0.88951c0.30237 0.48923 2.0164 1.1224 3.809 1.407 1.7926 0.28459 5.0593 1.0406 7.2593 1.6801s5.125 1.3902 6.5 1.6684 3.4 0.86827 4.5 1.3114 5.375 1.8128 9.5 3.0438 8.4 2.6021 9.5 3.047 5.15 1.8028 9 3.0177c12.907 4.0728 27.905 10.267 45 18.586 41.733 20.308 65.035 47.576 58.346 68.278-2.6164 8.0981-3.7331 9.9748-14.324 24.071-27.418 36.493-58.729 67.357-96.022 94.655-7.8984 5.7814-33.168 22.345-34.09 22.345-0.33088 0-1.7961 0.83079-3.256 1.8462-2.6625 1.8518-10.027 5.9498-22.154 12.327-8.9572 4.7104-29.758 13.986-40 17.836-4.675 1.7576-9.4 3.5541-10.5 3.9923s-3.575 1.3375-5.5 1.9985-4.4 1.5528-5.5 1.9818-5.375 1.7872-9.5 3.0182-8.4 2.6007-9.5 3.0438c-1.1 0.443-3.125 1.0331-4.5 1.3113s-4.3 1.021-6.5 1.6507c-2.2 0.6298-5.8 1.5365-8 2.0149-2.2 0.4785-6.025 1.3457-8.5 1.9272-38.587 9.0659-84.033 12.564-129.5 9.9667zm412.49-226.16c-2.503-4.1043-6.3082-15.873-8.4874-26.25-0.92402-4.4-2.0898-9.0337-2.5907-10.297s-0.91062-3.2564-0.91062-4.429c0-1.1726-0.41951-3.5139-0.93224-5.2029-0.88974-2.931-1.9691-7.0804-3.9852-15.321-1.4112-5.7679-2.8026-11.306-4.0825-16.25-0.64076-2.475-1.6218-6.3-2.18-8.5-0.55823-2.2-1.4211-4.7814-1.9175-5.7364-0.4964-0.95504-0.90254-2.841-0.90254-4.191 0-1.35-0.45-2.7327-1-3.0726s-1-1.9149-1-3.5-0.45-3.1601-1-3.5-1-1.6899-1-3-0.45-2.6601-1-3-1-1.6899-1-3-0.45-2.6601-1-3-1-1.4976-1-2.5726c0-1.075-0.41404-2.7359-0.92009-3.691s-1.8999-4.4364-3.0975-7.7364c-2.6904-7.4136-3.1203-8.5016-6.3708-16.125-1.4364-3.3688-2.6116-6.4232-2.6116-6.7876 0-1.0905-14.798-30.691-18.041-36.087-1.6526-2.75-3.2993-5.675-3.6594-6.5s-3.8008-6.225-7.6459-12c-5.9854-8.9895-9.8346-14.24-20.928-28.549l-1.7744-2.2888 12.274-5.9532c20.664-10.022 41.158-19.063 46.774-20.635 1.375-0.38474 3.4-1.0917 4.5-1.571 1.1-0.47933 4.925-1.8306 8.5-3.0028s7.4-2.5004 8.5-2.9516 4.025-1.3655 6.5-2.0318c2.475-0.6663 5.2814-1.6176 6.2364-2.114 0.95504-0.4964 2.841-0.90254 4.191-0.90254 1.35 0 2.7327-0.45 3.0726-1s1.9149-1 3.5-1 3.1601-0.45 3.5-1 2.0765-1 3.859-1 3.6685-0.40391 4.191-0.89757c0.5225-0.49367 2.75-1.1458 4.95-1.4492 2.2-0.30339 6.475-1.03 9.5-1.6146 15.027-2.9044 35.72-4.7187 37.179-3.2597 2.6679 2.6679 4.8873 52.177 3.6651 81.759-1.3993 33.872-3.7818 51.258-11.848 86.462-3.9427 17.208-14.621 50.762-20.606 64.75-0.7648 1.7875-2.0122 4.7125-2.772 6.5-1.5225 3.5822-3.2904 7.6792-6.5803 15.25-6.3734 14.667-15.842 31.918-20.445 37.25-2.9628 3.4322-7.1692 2.9942-9.605-1zm-833.76-166.19c-0.99339-1.6115-2.1449-15.087-3.389-39.661-1.521-30.043-0.13301-62.066 3.9613-91.395 0.53747-3.85 1.2139-8.125 1.5031-9.5 0.28926-1.375 1.0601-5.2 1.713-8.5 0.65292-3.3 1.7989-8.7 2.5466-12 0.74768-3.3 1.5597-7.125 1.8046-8.5s1.4285-6.1 2.6303-10.5c1.2019-4.4 2.548-9.35 2.9915-11 1.1438-4.2555 4.0876-13.633 5.0226-16 0.43458-1.1 1.331-3.575 1.992-5.5s1.561-4.4 2-5.5 1.339-3.575 2-5.5c1.6518-4.8103 2.5289-6.9719 7.4052-18.25 0.77286-1.7875 2.2354-5.275 3.25-7.75 5.3777-13.118 18.665-38.253 22.17-41.937 5.4956-5.777 8.3749-5.5758 11.612 0.81162 2.7189 5.3655 5.942 16.361 9.5634 32.625 0.48985 2.2 1.3898 6.025 2 8.5s1.5102 6.3 2 8.5c0.86749 3.896 1.8805 8.0628 4.0723 16.75 0.58974 2.3375 1.3145 5.7167 1.6105 7.5093 0.29603 1.7926 0.93852 3.5066 1.4278 3.809 0.48923 0.30236 0.88951 1.627 0.88951 2.9437 0 1.3167 0.40314 3.4276 0.89586 4.691s1.4536 4.322 2.1352 6.797c2.111 7.6651 3.2174 11.421 3.9763 13.5 0.40162 1.1 1.7296 5.15 2.951 9 10.506 33.114 28.162 70.509 45.268 95.876 6.2192 9.2224 17.284 23.973 19.137 25.51 0.90022 0.74712 1.6218 1.8658 1.6034 2.486-0.0373 1.2609-22.885 12.628-42.217 21.003-2.0625 0.89356-5.2125 2.2594-7 3.0351-6.4186 2.7856-19.663 7.5664-33.334 12.032-7.6541 2.5004-15.298 4.9987-16.987 5.5518s-4.025 1.0055-5.191 1.0055-2.3674 0.40028-2.6697 0.88951c-0.30237 0.48923-2.0164 1.1429-3.809 1.4526-1.7926 0.30966-4.8343 0.84005-6.7593 1.1786-1.925 0.33857-4.4 1.007-5.5 1.4854-1.1 0.47842-3.8 1.1377-6 1.465-2.2 0.32736-6.7 1.0434-10 1.5911-9.7403 1.6168-26.63 2.5415-27.276 1.4934zm357.65-189.02c-0.25453-0.25453-5.167-0.97018-10.917-1.5903-10.294-1.1104-17.634-2.0777-29.454-3.8818-16.283-2.4855-20.385-3.1386-25-3.9811-2.75-0.50201-7.7-1.4033-11-2.0028-3.3-0.59954-8.25-1.5587-11-2.1315s-7.025-1.4501-9.5-1.9496c-6.4501-1.3017-12.89-2.7367-17.5-3.8996-2.2-0.55493-5.9125-1.4795-8.25-2.0547-2.3375-0.57515-5.9375-1.4756-8-2.001-2.0625-0.52539-5.1-1.2343-6.75-1.5753-1.65-0.34104-3.9-0.97383-5-1.4062-4.1748-1.641-9.2054-3.0632-10.835-3.0632-0.93091 0-2.474-0.39966-3.429-0.88813s-9.8364-3.4901-19.736-6.6702-18.45-6.0842-19-6.4536-3.025-1.4547-5.5-2.4119c-7.4383-2.8768-10.88-4.4625-25.279-11.646-24.411-12.179-42.558-25.755-50.559-37.824-6.3584-9.5913-8.1624-14.592-8.1624-22.624 0-11.442 5.5444-20.701 29.928-49.981 14.285-17.154 36.539-39.593 53.072-53.514 3.575-3.0102 6.725-5.7245 7-6.0318 0.275-0.30733 6.125-4.8145 13-10.016 40.545-30.675 83.19-53.103 131.5-69.16 8.25-2.742 17.362-5.6137 20.25-6.3816 2.8875-0.7679 7.8375-2.0902 11-2.9385s8-2.0177 10.75-2.5987 7.025-1.4867 9.5-2.0126c25.868-5.4971 66.686-9.8257 92.5-9.8094 11.45 7e-3 44.866 2.2829 57 3.8819 3.85 0.50733 9.25 1.2134 12 1.569 2.75 0.35562 7.25 1.0798 10 1.6094s7.475 1.4329 10.5 2.0074 7.075 1.4326 9 1.9069c1.925 0.47425 5.75 1.3691 8.5 1.9886 5.6086 1.2634 11.756 2.8499 15.5 4 1.375 0.42243 4.525 1.3215 7 1.998 2.475 0.67647 5.4 1.5696 6.5 1.9848 1.1 0.41515 5.15 1.737 9 2.9374 3.85 1.2004 7.9 2.5656 9 3.0337 1.1 0.46814 4.7 1.8468 8 3.0636 3.3 1.2168 7.8 3.002 10 3.967 2.2 0.96502 5.125 2.0841 6.5 2.4869 3.0483 0.89292 38.738 18.467 45 22.159 2.475 1.4591 5.85 3.4291 7.5 4.3779 26.067 14.989 49.516 32.426 77.5 57.629 11.669 10.51 17.92 16.885 34.674 35.362 4.7516 5.2406 21.702 26.48 24.968 31.286 1.5719 2.3128 4.8211 6.8189 7.2206 10.014 4.4088 5.8698 4.8614 7.6544 1.4848 5.8536-1.0161-0.54188-3.5349-1.6981-5.5974-2.5693-2.0625-0.87124-5.2125-2.2063-7-2.9668-1.7875-0.76051-4.825-1.9309-6.75-2.6009-1.925-0.66999-4.4-1.6039-5.5-2.0753-2.9929-1.2827-17.238-5.8876-23.5-7.597-21.793-5.9484-28.57-7.5123-45-10.384-23.148-4.0455-51.548-5.5743-76.043-4.0935-21.912 1.3246-33.148 2.7418-48.207 6.0801-2.6125 0.57917-6.6625 1.454-9 1.944-2.3375 0.49001-7.4 1.7981-11.25 2.9069-3.85 1.1088-10.375 2.9685-14.5 4.1327-4.125 1.1642-8.4 2.5106-9.5 2.9922s-3.575 1.4163-5.5 2.0773c-4.8566 1.6677-5.9846 2.1256-18.75 7.6116-8.1209 3.49-33.095 16.004-39.102 19.593-3.4937 2.0874-6.539 3.7954-6.7672 3.7954-0.9599 0-22.685 14.012-32.381 20.883-27.367 19.397-50.33 38.57-75.5 63.036-23.869 23.201-28.402 26.845-30.629 24.618z" fill="#4fb6e3"/>
 </g>
</svg>
